<svg xmlns="http://www.w3.org/2000/svg" width="159" height="160" viewBox="0 0 159 160">
  <defs>
    <linearGradient id="222-a" x1="50%" x2="50%" y1="96.166%" y2="0%">
      <stop offset="0%" stop-color="#FF5000" stop-opacity="0"/>
      <stop offset="56.975%" stop-color="#FF5000" stop-opacity=".479"/>
      <stop offset="100%" stop-color="#FF5000" stop-opacity=".9"/>
    </linearGradient>
  </defs>
  <g fill="none" fill-rule="evenodd">
    <path fill="#FFF" d="M85.0574 22.9455C78.7214 22.9455 73.5854 17.8085 73.5854 11.4725 73.5854 5.1365 78.1034 1.8375 84.4394 1.8375 90.7754 1.8375 96.5304 5.1365 96.5304 11.4725 96.5304 17.8085 91.3944 22.9455 85.0574 22.9455zM91.1359 57.9109L91.1359 62.7549 112.9449 62.7549C111.5689 65.2449 109.1529 68.7089 105.1549 71.9769 95.6069 79.7799 81.3259 82.9389 63.8719 81.1139 63.7949 81.1059 56.0489 80.2209 50.5419 76.8189L50.2339 76.6279 50.0429 76.9369C49.4009 77.9779 49.2459 79.2449 49.6199 80.4119 49.9869 81.5549 50.8269 82.4749 51.9249 82.9349 57.4569 85.2559 63.1139 85.9039 63.3539 85.9299 66.6759 86.2769 69.9609 86.4529 73.1159 86.4529 87.8319 86.4519 99.7189 82.7799 108.4459 75.5399 116.6019 68.7729 118.9199 61.3479 119.0159 61.0339L119.9609 57.9109 91.1359 57.9109z"/>
    <path fill="#FFF" d="M142.2579,86.0096 C142.1139,83.4996 140.0469,81.5496 137.5409,81.5496 L137.4939,81.5496 C137.2399,81.5526 136.9899,81.5536 136.7389,81.5536 C115.4059,81.5536 102.4339,72.9616 92.5499,64.5296 L92.3229,64.3346 L92.0899,64.5206 C90.5479,65.7416 88.3899,66.8386 88.3669,66.8496 L87.8859,67.0936 L88.2929,67.4476 C99.7019,77.3656 113.4549,86.5456 136.6409,86.5456 C138.3519,86.5456 140.1269,86.4936 141.9159,86.3916 L142.2789,86.3706 L142.2579,86.0096 Z"/>
    <path fill="url(#222-a)" d="M71,35.5 C71,55.1070677 55.1058626,71 35.5,71 C15.8929323,71 0,55.1070677 0,35.5 C0,15.8941374 15.8929323,0 35.5,0 C55.1058626,0 71,15.8941374 71,35.5" opacity=".4" transform="translate(83 90)"/>
    <polygon fill="#FFF" points="28.856 145.974 30.399 148.305 31.934 145.974 33.022 145.974 30.847 149.096 30.847 151.159 29.944 151.159 29.944 149.096 27.768 145.974"/>
    <path fill="#FFF" d="M34.505,145.9744 L34.505,149.2054 C34.505,149.6564 34.612,149.9824 34.837,150.2004 C35.053,150.4114 35.407,150.5194 35.894,150.5194 C36.371,150.5194 36.727,150.4114 36.95,150.2004 C37.166,149.9824 37.282,149.6564 37.282,149.2054 L37.282,145.9744 L38.185,145.9744 L38.185,149.1914 C38.185,149.8664 37.984,150.3814 37.583,150.7374 C37.182,151.0854 36.619,151.2594 35.894,151.2594 C35.16,151.2594 34.597,151.0854 34.212,150.7454 C33.803,150.3814 33.602,149.8664 33.602,149.1914 L33.602,145.9744 L34.505,145.9744 Z"/>
    <polygon fill="#FFF" points="43.24 145.974 43.24 146.701 40.17 146.701 40.17 148.138 43.054 148.138 43.054 148.864 40.17 148.864 40.17 150.432 43.371 150.432 43.371 151.159 39.266 151.159 39.266 145.974"/>
    <polygon fill="#FFF" points="47.848 145.974 49.723 150.039 49.754 150.039 51.621 145.974 52.678 145.974 52.678 151.159 51.776 151.159 51.776 147.586 51.744 147.586 50.124 151.159 49.345 151.159 47.725 147.586 47.695 147.586 47.695 151.159 46.791 151.159 46.791 145.974"/>
    <path fill="#FFF" d="M56.7228,149.1619 L55.8598,146.8899 L55.8278,146.8899 L54.9558,149.1619 L56.7228,149.1619 Z M56.3528,145.9739 L58.4588,151.1589 L57.4938,151.1589 L56.9938,149.8589 L54.6858,149.8589 L54.1848,151.1589 L53.2208,151.1589 L55.3268,145.9739 L56.3528,145.9739 Z"/>
    <polygon fill="#FFF" points="59 151.159 59.903 151.159 59.903 145.974 59 145.974"/>
    <polygon fill="#FFF" points="1.088 154.679 2.631 157.01 4.166 154.679 5.254 154.679 3.078 157.802 3.078 159.863 2.176 159.863 2.176 157.802 0 154.679"/>
    <path fill="#FFF" d="M6.7374,154.6785 L6.7374,157.9095 C6.7374,158.3605 6.8444,158.6865 7.0684,158.9055 C7.2854,159.1155 7.6394,159.2245 8.1264,159.2245 C8.6034,159.2245 8.9594,159.1155 9.1824,158.9055 C9.3984,158.6865 9.5134,158.3605 9.5134,157.9095 L9.5134,154.6785 L10.4174,154.6785 L10.4174,157.8955 C10.4174,158.5705 10.2164,159.0855 9.8154,159.4425 C9.4144,159.7905 8.8504,159.9645 8.1264,159.9645 C7.3924,159.9645 6.8294,159.7905 6.4444,159.4495 C6.0354,159.0855 5.8344,158.5705 5.8344,157.8955 L5.8344,154.6785 L6.7374,154.6785 Z"/>
    <polygon fill="#FFF" points="15.473 154.679 15.473 155.405 12.403 155.405 12.403 156.843 15.287 156.843 15.287 157.57 12.403 157.57 12.403 159.137 15.604 159.137 15.604 159.863 11.499 159.863 11.499 154.679"/>
    <polygon fill="#FFF" points="19.927 154.679 19.927 156.843 22.719 156.843 22.719 154.679 23.621 154.679 23.621 159.863 22.719 159.863 22.719 157.57 19.927 157.57 19.927 159.863 19.024 159.863 19.024 154.679"/>
    <path fill="#FFF" d="M25.8214,155.8699 C25.5214,156.2189 25.3754,156.6829 25.3754,157.2779 C25.3754,157.8659 25.5214,158.3309 25.8214,158.6799 C26.1314,159.0349 26.5784,159.2179 27.1494,159.2179 C27.7194,159.2179 28.1594,159.0429 28.4674,158.7019 C28.7694,158.3599 28.9244,157.8889 28.9244,157.2779 C28.9244,156.6689 28.7694,156.1889 28.4674,155.8409 C28.1594,155.4919 27.7194,155.3249 27.1494,155.3249 C26.5784,155.3249 26.1384,155.5069 25.8214,155.8699 M29.1384,155.3479 C29.6024,155.8339 29.8344,156.4789 29.8344,157.2779 C29.8344,158.0779 29.6024,158.7169 29.1384,159.2019 C28.6534,159.7109 27.9904,159.9649 27.1494,159.9649 C26.3004,159.9649 25.6364,159.7039 25.1584,159.1949 C24.6954,158.7019 24.4724,158.0619 24.4724,157.2779 C24.4724,156.4869 24.6954,155.8489 25.1584,155.3539 C25.6364,154.8319 26.3004,154.5769 27.1494,154.5769 C27.9904,154.5769 28.6534,154.8319 29.1384,155.3479"/>
    <polygon fill="#FFF" points="31.587 154.679 34.311 158.417 34.341 158.417 34.341 154.679 35.252 154.679 35.252 159.863 34.372 159.863 31.617 156.073 31.587 156.073 31.587 159.863 30.684 159.863 30.684 154.679"/>
    <path fill="#FFF" d="M40.3996,155.0203 C40.7936,155.3103 41.0406,155.7393 41.1396,156.3203 L40.2296,156.3203 C40.1526,155.9863 39.9826,155.7393 39.7356,155.5723 C39.4816,155.4053 39.1416,155.3253 38.7246,155.3253 C38.2086,155.3253 37.7996,155.4853 37.4996,155.8193 C37.1676,156.1673 37.0046,156.6543 37.0046,157.2923 C37.0046,157.9033 37.1516,158.3743 37.4446,158.7023 C37.7606,159.0493 38.2546,159.2243 38.9256,159.2243 C39.1886,159.2243 39.4346,159.1953 39.6666,159.1373 C39.8816,159.0793 40.0756,158.9993 40.2606,158.8983 L40.2606,157.8303 L38.8016,157.8303 L38.8016,157.1043 L41.1636,157.1043 L41.1636,159.2973 C40.8706,159.5143 40.5386,159.6743 40.1606,159.7913 C39.7586,159.9063 39.3196,159.9643 38.8256,159.9643 C37.9456,159.9643 37.2666,159.7043 36.7816,159.1813 C36.3256,158.6943 36.1026,158.0623 36.1026,157.2923 C36.1026,156.5163 36.3256,155.8773 36.7816,155.3753 C37.2586,154.8383 37.9076,154.5773 38.7246,154.5773 C39.4346,154.5773 39.9906,154.7223 40.3996,155.0203"/>
    <polygon fill="#FFF" points="45.641 154.679 45.641 156.843 48.434 156.843 48.434 154.679 49.336 154.679 49.336 159.863 48.434 159.863 48.434 157.57 45.641 157.57 45.641 159.863 44.738 159.863 44.738 154.679"/>
    <path fill="#FFF" d="M51.3214 154.6785L51.3214 157.9095C51.3214 158.3605 51.4284 158.6865 51.6524 158.9055 51.8694 159.1155 52.2234 159.2245 52.7104 159.2245 53.1874 159.2245 53.5434 159.1155 53.7664 158.9055 53.9824 158.6865 54.0974 158.3605 54.0974 157.9095L54.0974 154.6785 55.0014 154.6785 55.0014 157.8955C55.0014 158.5705 54.8004 159.0855 54.3994 159.4425 53.9984 159.7905 53.4344 159.9645 52.7104 159.9645 51.9764 159.9645 51.4134 159.7905 51.0284 159.4495 50.6194 159.0855 50.4184 158.5705 50.4184 157.8955L50.4184 154.6785 51.3214 154.6785zM57.2013 155.8699C56.9003 156.2189 56.7543 156.6829 56.7543 157.2779 56.7543 157.8659 56.9003 158.3309 57.2013 158.6799 57.5103 159.0349 57.9573 159.2179 58.5283 159.2179 59.0993 159.2179 59.5383 159.0429 59.8473 158.7019 60.1483 158.3599 60.3033 157.8889 60.3033 157.2779 60.3033 156.6689 60.1483 156.1889 59.8473 155.8409 59.5383 155.4919 59.0993 155.3249 58.5283 155.3249 57.9573 155.3249 57.5173 155.5069 57.2013 155.8699M60.5173 155.3479C60.9813 155.8339 61.2133 156.4789 61.2133 157.2779 61.2133 158.0779 60.9813 158.7169 60.5173 159.2019 60.0323 159.7109 59.3693 159.9649 58.5283 159.9649 57.6803 159.9649 57.0153 159.7039 56.5383 159.1949 56.0743 158.7019 55.8513 158.0619 55.8513 157.2779 55.8513 156.4869 56.0743 155.8489 56.5383 155.3539 57.0153 154.8319 57.6803 154.5769 58.5283 154.5769 59.3693 154.5769 60.0323 154.8319 60.5173 155.3479M41.9093 17.3045C39.4383 17.3045 37.4293 19.3145 37.4293 21.7845L37.4293 33.9935 42.2723 33.9935 42.2723 17.3045 41.9093 17.3045zM44.9796 51.3494C44.9626 51.4534 44.9306 51.5414 44.9096 51.6394 44.8686 51.8134 44.8306 51.9904 44.7706 52.1464 44.7476 52.2064 44.7126 52.2564 44.6866 52.3144 44.6046 52.4944 44.5176 52.6694 44.4056 52.8224 44.3916 52.8414 44.3746 52.8574 44.3596 52.8754 44.2206 53.0544 44.0666 53.2184 43.8846 53.3604 43.4326 53.7134 42.8626 53.9464 42.3106 54.1014 42.1486 54.1424 41.9866 54.1794 41.8276 54.2064L41.8276 47.1524C43.9646 47.6644 45.0476 48.7764 45.0476 50.4594 45.0476 50.7794 45.0236 51.0744 44.9796 51.3494zM95.8596 51.6564L95.6626 51.9604C92.4026 56.9924 86.6246 60.4134 86.5656 60.4494 70.4736 69.9534 46.2406 65.6534 45.2206 65.4664 39.0316 64.2044 34.8256 61.8214 33.0586 58.5704 31.9366 56.5064 31.8646 54.0864 32.8516 51.5744 33.5366 49.8274 35.1976 48.3934 37.3416 47.6724L37.3416 58.4894 39.4806 58.7414C39.9436 58.7954 44.0916 59.2014 46.9936 56.6204 48.1526 55.5894 49.5346 53.6734 49.5346 50.3974 49.5346 46.3754 46.8566 43.3714 42.5456 42.5564 42.4266 42.5344 42.3056 42.5134 42.1856 42.4944L42.1856 36.3824 41.8236 36.3824C39.3526 36.3824 37.3416 38.3924 37.3416 40.8634L37.3416 42.6464C33.1106 43.5354 29.7596 46.1934 28.3416 49.8044 26.8166 53.6934 26.9766 57.5244 28.8026 60.8834 30.5266 64.0554 34.6106 68.2474 44.2836 70.2174 44.9476 70.3444 51.0126 71.4474 59.2836 71.4474L59.7856 71.4464C71.6296 71.3814 81.4646 69.0854 89.0166 64.6254 89.2926 64.4654 95.8266 60.6144 99.7266 54.5944L99.9236 54.2904 95.8596 51.6564zM14.5021 121.5564L14.5021 116.1954C15.7741 116.5944 16.3951 117.4304 16.3951 118.7344 16.3951 119.8634 15.7591 120.8104 14.5021 121.5564M72.2361 125.8334L72.0741 125.4934 71.7401 125.6684C46.3101 139.0334 15.6471 131.3554 15.3461 131.2784 10.4521 129.9044 7.2271 127.9744 6.0191 125.6954 5.3151 124.3674 5.2581 122.8664 5.8461 121.1074 6.4281 119.3644 7.7951 117.9114 9.6351 117.0604L9.6351 127.3704 12.3961 126.9814C15.3601 126.5624 20.9681 124.3034 20.9681 118.7494 20.9681 114.9864 18.5311 112.2514 14.6071 111.6134 14.5651 111.6064 14.5231 111.5994 14.4791 111.5924L14.4791 105.1034 14.1161 105.1034C11.6461 105.1034 9.6351 107.1144 9.6351 109.5844L9.6351 111.9394C5.6061 113.0474 2.4841 115.8834 1.2511 119.5734.2501 122.5704.4191 125.4714 1.7401 127.9634 3.6091 131.4914 7.7581 134.1774 14.0761 135.9524 14.4491 136.0504 23.3541 138.3554 35.5231 138.3554 44.4461 138.3554 57.6711 137.2294 69.9991 131.8614 71.1131 131.3764 71.9621 130.4814 72.3891 129.3384 72.8191 128.1874 72.7651 126.9424 72.2361 125.8334"/>
    <path fill="#FF5000" d="M85.0578,-0.0002 C78.7128,-0.0002 73.5698,5.1438 73.5698,11.4878 C73.5698,14.9448 75.1028,18.0368 77.5178,20.1438 C78.2568,20.7238 81.3808,22.5638 84.2858,20.6628 C85.8768,19.6208 87.0558,15.7918 84.2438,13.4338 C83.0738,12.4518 80.9538,10.9788 80.5978,8.5298 C80.3848,7.0648 81.4038,4.7628 83.2038,3.7678 C83.2038,3.7678 80.3248,8.5158 84.6088,9.6098 C87.7088,10.4028 91.7038,12.8498 91.9528,16.5968 C92.1258,19.2058 90.5318,21.4998 90.3618,21.6738 C94.0358,19.7568 96.5468,15.9188 96.5468,11.4878 C96.5468,5.1438 91.4038,-0.0002 85.0578,-0.0002"/>
    <path fill="#FFF" d="M70.671,96.282 C71.175,95.232 71.183,94.023 70.692,92.962 C70.196,91.888 69.257,91.1 68.114,90.799 L67.767,90.708 L67.672,91.054 C67.657,91.105 66.24,96.138 60.713,103.09 C57.652,106.938 58.547,110.113 60.403,111.801 C61.511,112.808 63.04,113.363 64.711,113.363 C66.753,113.362 68.769,112.549 70.24,111.131 L70.502,110.88 L67.208,107.461 L66.948,107.712 C65.783,108.834 64.162,108.803 63.596,108.29 C63.234,107.96 63.74,106.91 64.428,106.043 C67.031,102.769 69.132,99.485 70.671,96.282"/>
    <path fill="#FFF" d="M74.1583,116.2605 L73.9443,115.9685 L73.6513,116.1815 C68.5163,119.9305 65.4773,120.1885 64.8123,119.9845 C64.6233,119.9265 64.5063,119.8685 64.4423,119.8305 C64.4663,119.5855 64.6493,118.7285 65.9773,117.1205 C69.5123,112.8505 71.9993,108.4375 73.4643,105.4895 C73.9793,104.4465 74.0333,103.2275 73.6083,102.1425 C73.1803,101.0515 72.3063,100.1865 71.2113,99.7695 L70.8733,99.6415 L70.7433,99.9785 C70.7153,100.0515 67.8473,107.4155 62.3233,114.0965 C60.0913,116.7915 59.2723,119.2035 59.8913,121.2615 C60.2203,122.3585 61.1013,123.8145 63.4293,124.5245 C63.9733,124.6905 64.5873,124.7755 65.2503,124.7755 C67.3383,124.7755 69.9403,123.9455 72.7743,122.3765 C73.8383,121.7885 74.5953,120.7765 74.8563,119.5975 C75.1133,118.4375 74.8593,117.2205 74.1583,116.2605"/>
    <polygon fill="#FFF" points="86.366 128.507 91.21 128.507 91.21 96.085 86.366 96.085"/>
    <path fill="#FFF" d="M100.7443 33.2771L100.7443 53.6401 106.0143 53.6401 106.0143 28.0081C103.1033 28.0081 100.7443 30.3681 100.7443 33.2771M30.2345 23.1785L30.2345 23.5405C30.2345 26.0115 32.2445 28.0225 34.7145 28.0225L41.5755 28.0225C45.2965 28.0225 48.9035 26.4805 51.4735 23.7915L52.0605 23.1785 30.2345 23.1785zM28.0919 30.868L28.0919 31.231C28.0919 33.702 30.1029 35.712 32.5729 35.712L43.0599 35.712C46.7799 35.712 50.3879 34.17 52.9589 31.481L53.5459 30.868 28.0919 30.868zM14.1398 84.7029C11.6688 84.7029 9.6588 86.7129 9.6588 89.1829L9.6588 102.1169 14.5018 102.1169 14.5018 84.7029 14.1398 84.7029z"/>
    <path fill="#FFF" d="M2.464 90.577L2.464 90.939C2.464 93.41 4.475 95.421 6.945 95.421L13.805 95.421C17.525 95.421 21.132 93.879 23.704 91.19L24.291 90.577 2.464 90.577zM82.5988 98.8699L91.6348 98.8699C95.3558 98.8699 98.9628 97.3269 101.5348 94.6399L102.1208 94.0249 78.1178 94.0249 78.1178 94.3889C78.1178 96.8589 80.1278 98.8699 82.5988 98.8699M73.8136 125.7225L73.8136 126.0845C73.8136 128.5555 75.8246 130.5665 78.2946 130.5665L98.4916 130.5665C102.2116 130.5665 105.8196 129.0245 108.3896 126.3355L108.9766 125.7225 73.8136 125.7225zM.3214 99.7176L.3214 100.0796C.3214 102.5506 2.3324 104.5616 4.8024 104.5616L15.2894 104.5616C19.0094 104.5616 22.6174 103.0196 25.1884 100.3306L25.7754 99.7176.3214 99.7176zM84.9953 35.0135L84.9953 35.3765C84.9953 37.8475 87.0063 39.8575 89.4763 39.8575L112.8933 39.8575C116.6153 39.8575 120.2233 38.3155 122.7943 35.6265L123.3803 35.0135 84.9953 35.0135zM82.6437 50.8562L82.6437 51.2182C82.6437 53.6892 84.6537 55.7002 87.1247 55.7002L116.5127 55.7002C120.2337 55.7002 123.8407 54.1582 126.4137 51.4692L126.9987 50.8562 82.6437 50.8562zM87.882 42.8201L87.882 43.1821C87.882 45.6531 89.893 47.6641 92.363 47.6641L109.556 47.6641C113.277 47.6641 116.884 46.1221 119.455 43.4331L120.041 42.8201 87.882 42.8201zM135.8673 106.6258C135.1803 105.3968 133.9873 104.5658 132.5973 104.3488L132.2393 104.2918 132.1823 104.6498C131.4953 109.0318 129.0633 112.4078 127.1443 114.4688 125.3033 116.4468 125.0523 119.3968 126.5353 121.6418L126.7343 121.9428 127.0373 121.7448C127.2843 121.5818 133.1353 117.6788 136.1003 110.5538 136.6333 109.2738 136.5483 107.8428 135.8673 106.6258M109.3078 114.4109C107.3968 112.3629 104.9718 108.9959 104.2798 104.5839L104.2228 104.2249 103.8658 104.2809C102.4758 104.4999 101.2848 105.3299 100.5958 106.5589 99.9148 107.7759 99.8298 109.2069 100.3628 110.4869 103.3238 117.5989 109.1788 121.5149 109.4258 121.6779L109.7288 121.8769 109.9288 121.5739C111.4068 119.3309 111.1518 116.3849 109.3078 114.4109"/>
    <path fill="#FFF" d="M120.7746 95.1912C117.7826 95.1912 115.3576 97.6172 115.3576 100.6092L115.3576 117.9212C115.3576 118.0032 115.2746 126.1692 109.8326 134.3042 102.4256 145.3782 89.0946 150.9922 70.2066 150.9922L69.8436 150.9922 69.8436 151.1492C69.8436 152.5632 70.3586 153.9622 71.3886 154.9322 72.3216 155.8112 73.5216 156.2852 74.7966 156.2852 74.8926 156.2852 74.9876 156.2832 75.0836 156.2772 87.6686 155.5852 104.6936 151.7332 114.3366 137.3172 120.7016 127.7982 120.7746 118.3202 120.7746 117.9212L120.7746 95.1912zM140.8624 144.4109L122.0794 125.7379C119.9734 127.8659 119.9884 131.2979 122.1124 133.4069L140.6434 151.8179 140.8994 151.5599C142.8594 149.5799 142.8434 146.3729 140.8624 144.4109M85.9152 24.6707C84.3892 25.7757 78.5022 25.9127 75.6542 25.9127L75.6562 25.8997 63.0172 25.8997C57.2642 25.8997 52.5832 30.5807 52.5832 36.3337L52.5832 62.3127 55.8172 61.1607C56.4042 60.9517 70.2702 55.8727 77.7912 40.6917 78.3392 39.5847 78.3942 38.2967 77.9442 37.1567 77.4942 36.0217 76.6162 35.1597 75.4732 34.7337L75.1332 34.6067 75.0062 34.9457C70.7762 46.2717 62.3962 52.3267 57.4272 55.0537L57.4272 36.3337C57.4272 33.2517 59.9352 30.7437 63.0172 30.7437L75.0842 30.7437 75.0862 30.7327C83.6072 30.5977 86.1282 25.6257 86.3612 25.1487 86.7532 24.3487 86.8102 23.6867 86.8102 23.6867 86.8102 23.6867 86.5742 24.1927 85.9152 24.6707M57.8341 90.7518C56.3771 91.9328 50.4111 92.0308 47.7251 91.9588L47.7261 91.9508 47.4681 91.9508C47.4091 91.9488 47.3421 91.9468 47.2871 91.9448L47.2871 91.9508 35.0861 91.9508C29.3331 91.9508 24.6521 96.6308 24.6521 102.3848L24.6521 128.3628 27.8871 127.2118C28.4731 127.0038 42.3301 121.9428 49.8601 106.7418 50.4081 105.6358 50.4641 104.3478 50.0141 103.2088 49.5631 102.0718 48.6861 101.2118 47.5421 100.7838L47.2021 100.6568 47.0751 100.9968C42.8461 112.3218 34.4661 118.3768 29.4961 121.1048L29.4961 102.3848C29.4961 99.3028 32.0041 96.7948 35.0861 96.7948L47.1531 96.7948 47.1561 96.7748C55.6431 96.6228 58.2791 91.4178 58.3891 91.1918L59.0961 89.7308 57.8341 90.7518z"/>
    <path fill="#FFF" d="M85.2755 58.3621C67.3575 45.5931 67.1495 18.4891 67.1495 18.2161L67.1495 17.8541 66.7875 17.8541C65.5905 17.8541 64.4435 18.3611 63.6385 19.2441 62.8325 20.1291 62.4315 21.3211 62.5425 22.5151 63.2545 30.2911 66.4625 49.6121 80.7975 61.0421L80.9525 61.1641 81.1385 61.1021C83.7035 60.2501 85.2335 58.9891 85.2975 58.9351L85.6595 58.6341 85.2755 58.3621zM57.9142 128.157C47.0832 118.497 42.9722 106.262 40.8222 97.9 38.1972 87.69 37.8872 79.302 37.8842 79.219L37.8712 78.855 37.5092 78.868C36.3162 78.909 35.1852 79.446 34.4012 80.344 33.6092 81.252 33.2402 82.412 33.3632 83.61 33.7272 87.167 34.4982 92.728 36.1082 99.016 38.5012 108.357 43.3602 121.315 52.9232 130.007L53.0652 130.136 53.2522 130.091C55.1102 129.644 56.8922 129.073 57.7882 128.771L58.3812 128.573 57.9142 128.157zM156.2345 115.5389C156.6415 115.2699 156.9675 114.9729 157.2025 114.6459L154.4105 114.6459 154.4105 114.0999 157.9865 114.0999 157.9865 114.5509C157.7315 115.0499 157.3445 115.4809 156.8355 115.8549 157.4255 116.1819 157.9965 116.5269 158.5375 116.9009L158.1705 117.4289C157.5475 116.9589 156.9265 116.5459 156.3055 116.1909 155.9285 116.4019 155.5105 116.5849 155.0525 116.7379L154.6655 116.2489C155.0325 116.1239 155.3685 115.9889 155.6735 115.8459 155.2465 115.6249 154.8285 115.4339 154.4105 115.2609L154.7065 114.8389C155.2355 115.0499 155.7455 115.2889 156.2345 115.5389zM157.9255 120.5369C157.5885 120.9309 157.2225 121.2849 156.8355 121.6009 157.3245 121.7559 157.8025 121.9279 158.2715 122.1099L157.9155 122.6189C156.5905 122.0429 155.2355 121.5929 153.8505 121.2669L154.1345 120.8629C154.8585 121.0259 155.5515 121.2089 156.2235 121.4099 156.6525 121.0459 157.0185 120.6619 157.3445 120.2589L157.9255 120.5369zM151.9235 120.2969L156.0915 120.2969 156.0915 119.7319 151.9235 119.7319 151.9235 120.2969zM151.9235 119.3179L156.0915 119.3179 156.0915 118.7809 151.9235 118.7809 151.9235 119.3179zM154.5115 118.3399L156.5705 118.3399C155.4495 117.8979 154.6145 117.4289 154.0535 116.9299 153.4425 117.4479 152.6685 117.9179 151.7305 118.3399L153.8505 118.3399C153.7275 118.1099 153.6055 117.9079 153.4635 117.7359L154.1345 117.6209C154.2675 117.8319 154.3895 118.0709 154.5115 118.3399zM150.6715 115.7299C151.0885 115.9709 151.4565 116.2109 151.7715 116.4399 152.2195 116.2009 152.6175 115.9229 152.9435 115.6149L150.7835 115.6149C150.7435 115.6539 150.7125 115.6919 150.6715 115.7299zM156.7845 120.7379L151.9235 120.7379 151.9235 121.9469C152.6785 121.8609 153.4025 121.7559 154.0945 121.6309L154.2165 122.1679C153.3815 122.3109 152.3325 122.4459 151.0885 122.5709L150.8955 122.0339C151.0995 121.9949 151.2015 121.8989 151.2015 121.7459L151.2015 118.5599C150.7625 118.7329 150.3145 118.8959 149.8455 119.0509L149.4595 118.4939C151.3235 118.0429 152.7695 117.3519 153.7895 116.4309L154.3185 116.4309C155.2555 117.2749 156.7225 117.9279 158.6995 118.3879L158.3125 118.9439C157.7425 118.7709 157.2325 118.5999 156.7845 118.4269L156.7845 120.7379zM152.4545 113.7639L152.4545 114.1389 153.8605 114.1389 153.8605 114.6459 152.4545 114.6459 152.4545 115.1549 153.7785 115.1549 153.7785 115.5479C152.9135 116.6029 151.5785 117.3229 149.7855 117.7069L149.4695 117.1979C150.1315 117.0739 150.7225 116.9009 151.2425 116.6899 150.9775 116.4789 150.6715 116.2589 150.3255 116.0469 150.1415 116.2009 149.9475 116.3349 149.7445 116.4599L149.3675 116.0089C150.0405 115.6149 150.4985 115.1359 150.7435 114.5799L151.3845 114.6459C151.3135 114.8189 151.2315 114.9919 151.1305 115.1549L151.8225 115.1549 151.8225 113.7639 152.4545 113.7639zM155.2863 126.3191C155.2253 126.7691 155.1443 127.1921 155.0423 127.5751L158.2623 127.5751 158.2623 128.0261C158.0573 128.8811 157.7933 129.7241 157.4673 130.5591L156.7433 130.3671C157.0593 129.7441 157.3143 129.0341 157.5083 128.2481L154.8583 128.2481C154.5733 129.1211 154.1863 129.8301 153.7183 130.3671L153.1063 129.9731C153.8703 129.0721 154.3593 127.8151 154.5733 126.2141L155.2863 126.3191zM156.0603 129.2071C156.0403 129.8011 155.9893 130.3391 155.9293 130.8181 156.4883 132.3531 157.4363 133.5811 158.7813 134.4831L158.2713 135.0401C157.1503 134.1951 156.2953 133.1591 155.7243 131.9121 155.6233 132.3151 155.5013 132.6511 155.3583 132.9381 154.9313 133.7631 154.2073 134.4831 153.2083 135.0881L152.7393 134.5211C153.6463 134.0041 154.2883 133.3801 154.6763 132.6511 155.0533 131.9411 155.2663 130.7901 155.3273 129.2071L156.0603 129.2071zM151.5163 129.7631L151.5163 133.9461C151.9243 133.7541 152.3323 133.4851 152.7393 133.1591L152.8823 133.8021C152.2913 134.2241 151.6193 134.5791 150.8653 134.8471L150.5693 134.2621C150.7123 134.1761 150.7943 134.0511 150.7943 133.8791L150.7943 129.7631 151.5163 129.7631zM149.8063 130.5021L149.3373 129.9551C149.9883 129.0531 150.4363 127.8351 150.6713 126.3091L151.3943 126.4241C151.3033 126.9421 151.1913 127.4231 151.0683 127.8731L153.1373 127.8731 153.1373 128.4101C152.8613 128.9961 152.5563 129.4851 152.2303 129.8871L151.6893 129.4851C151.9243 129.2071 152.1393 128.8811 152.3423 128.5071L150.8753 128.5071C150.5903 129.2931 150.2333 129.9651 149.8063 130.5021zM151.884 146.491L156.713 146.491 156.713 145.598 151.884 145.598 151.884 146.491zM151.884 143.824L156.254 143.824 156.254 143.056 151.884 143.056 151.884 143.824zM156.968 144.381L151.884 144.381 151.884 145.043 157.437 145.043 157.437 147.508 156.713 147.508 156.713 147.105 151.884 147.105 151.884 147.499 151.151 147.499 151.151 142.5 156.968 142.5 156.968 144.381zM158.374 143.076L157.66 143.076 157.66 141.934 150.447 141.934 150.447 143.076 149.734 143.076 149.734 141.339 153.769 141.339C153.666 141.109 153.565 140.907 153.452 140.716L154.166 140.6 154.105 140.562C154.594 139.986 154.941 139.363 155.164 138.672L155.867 138.816C155.796 139.017 155.725 139.21 155.643 139.401L158.588 139.401 158.588 140.006 156.775 140.006C156.988 140.274 157.161 140.523 157.283 140.754L156.632 140.984C156.448 140.638 156.235 140.312 155.989 140.006L155.348 140.006C155.164 140.332 154.95 140.638 154.726 140.927L154.176 140.61C154.288 140.831 154.401 141.07 154.502 141.339L158.374 141.339 158.374 143.076zM150.142 141.042L149.5 140.658C150.111 140.063 150.56 139.391 150.845 138.663L151.548 138.806C151.466 139.017 151.374 139.21 151.293 139.401L154.024 139.401 154.024 140.006 152.312 140.006C152.536 140.294 152.73 140.571 152.872 140.831L152.199 141.07C152.017 140.706 151.792 140.351 151.537 140.006L150.957 140.006C150.712 140.38 150.447 140.725 150.142 141.042zM156.061 155.381L157.478 155.381 157.478 154.086 156.061 154.086 156.061 155.381zM156.061 153.481L157.478 153.481 157.478 152.176 156.061 152.176 156.061 153.481zM153.9 155.381L155.327 155.381 155.327 154.086 153.9 154.086 153.9 155.381zM153.9 153.482L155.327 153.482 155.327 152.177 153.9 152.177 153.9 153.482zM158.181 151.563L158.181 155.995 156.061 155.995 156.061 157.128 158.354 157.128 158.354 157.779 156.061 157.779 156.061 159.027 158.731 159.027 158.731 159.688 152.597 159.688 152.597 159.027 155.327 159.027 155.327 157.779 153.025 157.779 153.025 157.128 155.327 157.128 155.327 155.995 153.197 155.995 153.197 151.563 158.181 151.563zM150.712 154.738L150.712 152.465 149.459 152.465 149.459 151.812 152.709 151.812 152.709 152.465 151.466 152.465 151.466 154.738 152.587 154.738 152.587 155.4 151.466 155.4 151.466 157.578C151.854 157.453 152.22 157.319 152.587 157.166L152.587 157.837C151.65 158.202 150.641 158.509 149.561 158.759L149.377 158.096C149.825 158.019 150.275 157.924 150.712 157.808L150.712 155.4 149.602 155.4 149.602 154.738 150.712 154.738z"/>
  </g>
</svg>
