<?xml version="1.0" encoding="UTF-8"?>
<svg width="217px" height="102px" viewBox="0 0 217 102" version="1.1" xmlns="http://www.w3.org/2000/svg" xmlns:xlink="http://www.w3.org/1999/xlink">
    <!-- Generator: Sketch 49.2 (51160) - http://www.bohemiancoding.com/sketch -->
    <title>3</title>
    <desc>Created with Sketch.</desc>
    <defs>
        <polygon id="path-1" points="0.415 0.1752 132.976 0.1752 132.976 18.9192 0.415 18.9192"></polygon>
    </defs>
    <g id="Page-1" stroke="none" stroke-width="1" fill="none" fill-rule="evenodd">
        <g id="越麦越红火品牌官网" transform="translate(-1015.000000, -309.000000)">
            <g id="Page-1" transform="translate(1015.000000, 309.000000)">
                <g id="Group-4">
                    <g id="Group-3" transform="translate(84.000000, 80.549000)">
                        <mask id="mask-2" fill="white">
                            <use xlink:href="#path-1"></use>
                        </mask>
                        <g id="Clip-2"></g>
                        <path d="M123.605,18.9192 L9.787,18.9192 C4.61,18.9192 0.415,14.7232 0.415,9.5472 C0.415,4.3712 4.61,0.1752 9.787,0.1752 L123.605,0.1752 C128.781,0.1752 132.976,4.3712 132.976,9.5472 C132.976,14.7232 128.781,18.9192 123.605,18.9192" id="Fill-1" fill="#FF6000" mask="url(#mask-2)"></path>
                    </g>
                    <path d="M103.9634,91.3129 C103.9434,91.1729 103.8674,91.0179 103.7374,90.8469 C103.6634,90.7499 103.5644,90.6229 103.4374,90.4669 C103.3104,90.3119 103.1694,90.1469 103.0144,89.9699 C102.8594,89.7949 102.6914,89.6119 102.5114,89.4189 C102.3324,89.2269 102.1484,89.0379 101.9604,88.8489 L101.9604,88.7389 L103.7004,88.7389 C104.0114,88.7389 104.1664,88.5869 104.1664,88.2859 C104.1664,87.9919 104.0114,87.8449 103.7004,87.8449 L101.9604,87.8449 L101.9604,85.9329 C102.2224,85.8509 102.4654,85.7719 102.6904,85.6939 C102.9144,85.6159 103.1244,85.5329 103.3204,85.4429 C103.5824,85.3279 103.7334,85.2179 103.7744,85.1119 C103.8154,85.0049 103.7984,84.8709 103.7254,84.7069 C103.6024,84.4539 103.3404,84.4169 102.9414,84.5969 C102.7534,84.6869 102.5264,84.7789 102.2604,84.8729 C101.9944,84.9659 101.7094,85.0569 101.4024,85.1419 C101.0964,85.2279 100.7734,85.3069 100.4344,85.3799 C100.0954,85.4549 99.7624,85.5119 99.4364,85.5529 C99.1984,85.5849 99.0384,85.6449 98.9574,85.7309 C98.8754,85.8169 98.8434,85.9409 98.8594,86.1049 C98.8754,86.2839 98.9394,86.3959 99.0494,86.4409 C99.1594,86.4859 99.3374,86.4889 99.5824,86.4469 C100.1214,86.3659 100.6244,86.2669 101.0894,86.1529 L101.0894,87.8449 L99.0674,87.8449 C98.8964,87.8449 98.7774,87.8809 98.7124,87.9549 C98.6474,88.0289 98.6134,88.1379 98.6134,88.2859 C98.6134,88.4409 98.6474,88.5549 98.7124,88.6279 C98.7774,88.7029 98.8964,88.7389 99.0674,88.7389 L100.7344,88.7389 C100.6044,89.1159 100.4694,89.4639 100.3294,89.7869 C100.1914,90.1099 100.0404,90.4199 99.8764,90.7179 C99.7124,91.0169 99.5354,91.3149 99.3444,91.6129 C99.1514,91.9119 98.9334,92.2199 98.6884,92.5389 C98.5724,92.6939 98.5164,92.8439 98.5164,92.9929 C98.5164,93.1389 98.5854,93.2579 98.7254,93.3469 C98.8634,93.4369 98.9934,93.4589 99.1164,93.4149 C99.2394,93.3699 99.3664,93.2529 99.4964,93.0659 C99.8724,92.5179 100.1854,92.0179 100.4344,91.5649 C100.6834,91.1109 100.9014,90.6549 101.0894,90.1979 L101.0894,95.4929 C101.0894,95.6559 101.1224,95.7689 101.1884,95.8349 C101.2534,95.9009 101.3674,95.9329 101.5314,95.9329 C101.6704,95.9329 101.7754,95.9009 101.8494,95.8349 C101.9244,95.7689 101.9604,95.6559 101.9604,95.4929 L101.9604,90.1249 C102.1644,90.3619 102.3614,90.6059 102.5544,90.8599 C102.7464,91.1129 102.9114,91.3339 103.0514,91.5209 C103.2884,91.8479 103.5364,91.9009 103.7984,91.6799 C103.9294,91.5749 103.9844,91.4519 103.9634,91.3129" id="Fill-4" fill="#FEFEFE"></path>
                    <path d="M109.5035,93.5375 C109.3855,93.0175 109.2585,92.4855 109.1235,91.9375 C108.9885,91.3915 108.8485,90.8435 108.7005,90.2955 C108.5535,89.7485 108.4145,89.2325 108.2835,88.7515 C108.2275,88.5635 108.1325,88.4315 108.0025,88.3525 C107.8715,88.2755 107.7325,88.2695 107.5855,88.3345 C107.4225,88.3995 107.3285,88.4955 107.3035,88.6225 C107.2795,88.7495 107.3035,88.9315 107.3775,89.1685 C107.5975,89.8625 107.8065,90.5755 108.0025,91.3065 C108.1985,92.0375 108.3865,92.8245 108.5665,93.6665 C107.9535,93.7075 107.3255,93.7495 106.6855,93.7945 C106.0435,93.8395 105.4245,93.8825 104.8275,93.9235 C104.7375,93.9235 104.6795,93.9025 104.6495,93.8625 C104.6215,93.8215 104.6405,93.7195 104.7055,93.5565 C105.0735,92.4935 105.4735,91.2435 105.9065,89.8055 C106.3395,88.3675 106.7765,86.8145 107.2175,85.1485 C107.2915,84.8875 107.3035,84.6965 107.2545,84.5785 C107.2055,84.4595 107.0915,84.3845 106.9105,84.3515 C106.7235,84.3195 106.5875,84.3435 106.5015,84.4255 C106.4155,84.5075 106.3395,84.6625 106.2745,84.8905 C106.0295,85.8395 105.7985,86.7065 105.5815,87.4945 C105.3655,88.2835 105.1525,89.0265 104.9445,89.7255 C104.7355,90.4245 104.5275,91.0865 104.3195,91.7115 C104.1115,92.3365 103.8935,92.9555 103.6635,93.5675 C103.4765,94.0915 103.4505,94.4485 103.5905,94.6405 C103.7295,94.8325 104.0485,94.9075 104.5465,94.8665 L108.7375,94.5365 C108.7625,94.6415 108.7845,94.7505 108.8055,94.8605 C108.8255,94.9715 108.8485,95.0835 108.8725,95.1985 C108.9215,95.4595 108.9965,95.6225 109.0995,95.6875 C109.2015,95.7535 109.3465,95.7685 109.5345,95.7365 C109.8045,95.6875 109.8945,95.4315 109.8045,94.9655 C109.7225,94.5315 109.6225,94.0565 109.5035,93.5375" id="Fill-6" fill="#FEFEFE"></path>
                    <path d="M124.0318,87.5258 L124.0318,86.3248 C124.0318,86.2268 124.0498,86.1618 124.0818,86.1288 C124.1138,86.0958 124.1638,86.0798 124.2278,86.0798 L131.5938,86.0798 C131.7328,86.0798 131.8018,86.1528 131.8018,86.2998 L131.8018,87.2688 C131.8018,87.3668 131.7868,87.4338 131.7548,87.4698 C131.7198,87.5068 131.6688,87.5258 131.5938,87.5258 L124.0318,87.5258 Z M132.8688,89.4508 L128.8858,89.4508 C128.7718,89.1638 128.6338,88.8818 128.4688,88.6048 C128.4448,88.5718 128.4218,88.5418 128.4018,88.5128 C128.3818,88.4838 128.3628,88.4578 128.3458,88.4318 L131.6558,88.4318 C131.8688,88.4318 132.0438,88.4148 132.1818,88.3778 C132.3218,88.3398 132.4338,88.2798 132.5198,88.1938 C132.6058,88.1078 132.6648,87.9918 132.6978,87.8448 C132.7298,87.6978 132.7468,87.5128 132.7468,87.2928 L132.7468,86.2888 C132.7468,86.0668 132.7298,85.8858 132.6978,85.7428 C132.6648,85.5988 132.6068,85.4848 132.5258,85.3998 C132.4438,85.3138 132.3318,85.2528 132.1888,85.2148 C132.0458,85.1778 131.8688,85.1608 131.6558,85.1608 L128.3338,85.1608 C128.2768,85.0298 128.2188,84.9088 128.1628,84.7978 C128.1048,84.6888 128.0448,84.5848 127.9788,84.4868 C127.8648,84.2978 127.7478,84.1928 127.6298,84.1678 C127.5108,84.1428 127.3828,84.1798 127.2438,84.2778 C127.0068,84.4498 126.9908,84.6868 127.1938,84.9888 C127.2108,85.0218 127.2288,85.0518 127.2498,85.0808 C127.2698,85.1098 127.2888,85.1358 127.3038,85.1608 L124.0198,85.1608 C123.6448,85.1608 123.3908,85.2358 123.2608,85.3868 C123.1298,85.5388 123.0648,85.7978 123.0648,86.1658 L123.0648,90.6148 C123.0648,91.0548 123.0438,91.4658 123.0028,91.8458 C122.9618,92.2258 122.8988,92.5838 122.8128,92.9188 C122.7268,93.2538 122.6108,93.5758 122.4648,93.8858 C122.3158,94.1968 122.1408,94.5068 121.9358,94.8188 C121.6678,95.2268 121.6598,95.5248 121.9128,95.7128 C122.0588,95.8188 122.1948,95.8478 122.3158,95.7978 C122.4388,95.7498 122.5788,95.6068 122.7338,95.3698 C123.1748,94.6918 123.5018,93.9738 123.7148,93.2178 C123.9268,92.4628 124.0318,91.6518 124.0318,90.7868 L124.0318,88.4318 L127.5868,88.4318 C127.4238,88.6218 127.4478,88.8528 127.6608,89.1308 C127.7008,89.1888 127.7348,89.2448 127.7638,89.2968 C127.7928,89.3498 127.8238,89.4008 127.8558,89.4508 L124.6708,89.4508 C124.4808,89.4508 124.3568,89.4888 124.2968,89.5668 C124.2348,89.6438 124.2048,89.7608 124.2048,89.9158 C124.2048,90.0708 124.2368,90.1878 124.3028,90.2648 C124.3678,90.3428 124.4898,90.3808 124.6708,90.3808 L126.2018,90.3808 C126.1778,90.9208 126.1198,91.4108 126.0308,91.8528 C125.9398,92.2938 125.8158,92.6938 125.6558,93.0528 C125.4968,93.4138 125.2978,93.7358 125.0558,94.0218 C124.8148,94.3068 124.5348,94.5688 124.2168,94.8058 C123.7838,95.1248 123.6358,95.4018 123.7748,95.6388 C123.8648,95.8028 123.9878,95.8918 124.1428,95.9088 C124.2978,95.9238 124.4938,95.8388 124.7308,95.6518 C125.3198,95.1698 125.7888,94.6608 126.1398,94.1258 C126.4918,93.5908 126.7498,92.9758 126.9128,92.2808 L131.1658,92.2808 C131.3618,92.2808 131.4858,92.3028 131.5398,92.3478 C131.5928,92.3938 131.6108,92.5018 131.5938,92.6728 C131.5618,92.9348 131.5028,93.2328 131.4168,93.5678 C131.3308,93.9028 131.2308,94.2018 131.1158,94.4628 C131.0518,94.6008 130.9758,94.7058 130.8898,94.7748 C130.8038,94.8438 130.6838,94.8798 130.5278,94.8798 C130.3238,94.8798 130.0638,94.8418 129.7508,94.7688 C129.4348,94.6958 128.9918,94.5648 128.4208,94.3768 C128.1908,94.3028 128.0228,94.2828 127.9178,94.3158 C127.8108,94.3478 127.7248,94.4588 127.6608,94.6458 C127.5948,94.8188 127.5968,94.9548 127.6658,95.0568 C127.7348,95.1588 127.8888,95.2468 128.1268,95.3198 C128.6898,95.4928 129.1698,95.6168 129.5658,95.6938 C129.9628,95.7718 130.2958,95.8108 130.5648,95.8108 C130.9818,95.8108 131.2898,95.7398 131.4898,95.5958 C131.6908,95.4528 131.8558,95.2138 131.9858,94.8798 C132.1258,94.5278 132.2458,94.1538 132.3478,93.7578 C132.4508,93.3618 132.5208,92.9798 132.5618,92.6128 C132.5878,92.3758 132.5898,92.1768 132.5688,92.0178 C132.5488,91.8588 132.4868,91.7298 132.3858,91.6308 C132.2828,91.5338 132.1348,91.4618 131.9378,91.4168 C131.7418,91.3728 131.4888,91.3498 131.1778,91.3498 L127.0728,91.3498 C127.0888,91.1948 127.1018,91.0368 127.1148,90.8788 C127.1278,90.7178 127.1338,90.5528 127.1338,90.3808 L132.8688,90.3808 C133.0088,90.3808 133.1198,90.3428 133.2058,90.2648 C133.2928,90.1878 133.3348,90.0708 133.3348,89.9158 C133.3348,89.7608 133.3038,89.6438 133.2428,89.5668 C133.1818,89.4888 133.0558,89.4508 132.8688,89.4508 Z" id="Fill-8" fill="#FEFEFE"></path>
                    <path d="M150.6773,91.9926 C150.8163,92.0466 150.9473,92.0316 151.0703,91.9506 C151.2073,91.8596 151.2803,91.7496 151.2833,91.6196 C151.2883,91.4886 151.2613,91.3616 151.2033,91.2396 C150.9913,90.8466 150.7573,90.4476 150.4993,90.0386 C150.2413,89.6306 149.9373,89.1686 149.5863,88.6536 L150.6403,88.6536 C150.8043,88.6536 150.9203,88.6166 150.9893,88.5426 C151.0593,88.4696 151.0933,88.3586 151.0933,88.2126 C151.0933,88.0566 151.0593,87.9426 150.9893,87.8686 C150.9203,87.7956 150.8043,87.7586 150.6403,87.7586 L149.5373,87.7586 L149.5373,86.8396 C149.5373,86.6596 149.5023,86.5326 149.4333,86.4596 C149.3643,86.3866 149.2473,86.3486 149.0833,86.3486 C148.9453,86.3486 148.8343,86.3846 148.7533,86.4536 C148.6713,86.5226 148.6303,86.6516 148.6303,86.8396 L148.6303,87.7586 L147.2573,87.7586 C147.0943,87.7586 146.9803,87.7956 146.9143,87.8686 C146.8493,87.9426 146.8173,88.0566 146.8173,88.2126 C146.8173,88.3586 146.8493,88.4696 146.9143,88.5426 C146.9803,88.6166 147.0943,88.6536 147.2573,88.6536 L148.4713,88.6536 C148.3323,89.1186 148.1903,89.5666 148.0413,89.9956 C147.8953,90.4246 147.7473,90.8246 147.6013,91.1966 C147.4533,91.5686 147.3043,91.9006 147.1543,92.1956 C147.0023,92.4896 146.8543,92.7336 146.7053,92.9296 C146.5503,93.1356 146.4883,93.2926 146.5163,93.4016 C146.5443,93.5126 146.6043,93.6096 146.6943,93.6896 C146.8323,93.8046 146.9683,93.8376 147.0983,93.7886 C147.2293,93.7396 147.3513,93.6166 147.4663,93.4206 C147.7193,92.9556 147.9403,92.5136 148.1273,92.0966 C148.3163,91.6806 148.4843,91.2596 148.6303,90.8346 L148.6303,95.5656 C148.6303,95.7366 148.6643,95.8536 148.7353,95.9146 C148.8043,95.9756 148.9203,96.0066 149.0833,96.0066 C149.2473,96.0066 149.3643,95.9756 149.4333,95.9146 C149.5023,95.8536 149.5373,95.7366 149.5373,95.5656 L149.5373,90.1736 C149.6763,90.4106 149.8113,90.6536 149.9423,90.9026 C150.0733,91.1516 150.2063,91.4106 150.3463,91.6806 C150.4283,91.8356 150.5383,91.9396 150.6773,91.9926" id="Fill-10" fill="#FEFEFE"></path>
                    <path d="M146.6324,90.1605 L146.6324,86.3735 C146.6324,86.2755 146.6694,86.2265 146.7434,86.2265 L156.0944,86.2265 C156.2584,86.2265 156.3714,86.1895 156.4374,86.1165 C156.5024,86.0425 156.5344,85.9285 156.5344,85.7725 C156.5344,85.5935 156.4984,85.4715 156.4254,85.4055 C156.3514,85.3405 156.2404,85.3105 156.0944,85.3195 L151.6694,85.3195 C151.6284,85.1645 151.5984,85.0425 151.5774,84.9525 C151.5584,84.8615 151.5414,84.7925 151.5284,84.7435 C151.5174,84.6945 151.5064,84.6575 151.4984,84.6335 C151.4894,84.6085 151.4864,84.5885 151.4864,84.5725 C151.4214,84.3595 151.3224,84.2335 151.1924,84.1925 C151.0614,84.1515 150.8934,84.1765 150.6904,84.2655 C150.5744,84.3315 150.5104,84.4315 150.4934,84.5655 C150.4774,84.7005 150.5104,84.8425 150.5914,84.9885 C150.6084,85.0295 150.6274,85.0795 150.6534,85.1365 C150.6774,85.1935 150.6974,85.2545 150.7134,85.3195 L146.7684,85.3195 C146.3754,85.3195 146.1004,85.4015 145.9404,85.5645 C145.7804,85.7285 145.7014,85.9975 145.7014,86.3735 L145.7014,90.0995 C145.7014,90.7365 145.6954,91.2735 145.6834,91.7115 C145.6704,92.1475 145.6444,92.5405 145.6034,92.8885 C145.5624,93.2345 145.5034,93.5615 145.4264,93.8685 C145.3484,94.1745 145.2434,94.5125 145.1124,94.8795 C145.0304,95.1075 145.0054,95.2715 145.0334,95.3695 C145.0624,95.4685 145.1454,95.5565 145.2844,95.6395 C145.4144,95.7045 145.5464,95.7065 145.6774,95.6445 C145.8074,95.5845 145.9044,95.4715 145.9714,95.3075 C146.0944,94.9655 146.1954,94.6235 146.2784,94.2845 C146.3594,93.9455 146.4264,93.5805 146.4804,93.1875 C146.5314,92.7965 146.5714,92.3565 146.5954,91.8705 C146.6204,91.3845 146.6324,90.8145 146.6324,90.1605" id="Fill-12" fill="#FEFEFE"></path>
                    <path d="M156.0513,92.6977 C155.8343,92.3137 155.6143,91.8927 155.3893,91.4347 C155.1643,90.9777 154.9423,90.5047 154.7213,90.0137 C154.5013,89.5237 154.3053,89.0707 154.1333,88.6537 L155.6153,88.6537 C155.7803,88.6537 155.8963,88.6217 155.9653,88.5547 C156.0343,88.4897 156.0703,88.3757 156.0703,88.2127 C156.0703,88.0497 156.0343,87.9317 155.9653,87.8627 C155.8963,87.7937 155.7803,87.7587 155.6153,87.7587 L153.8883,87.7587 L153.8883,86.7657 C153.8883,86.6277 153.8493,86.5187 153.7713,86.4407 C153.6943,86.3637 153.5863,86.3247 153.4473,86.3247 C153.2913,86.3247 153.1753,86.3637 153.0973,86.4407 C153.0203,86.5187 152.9823,86.6277 152.9823,86.7657 L152.9823,87.7587 L151.7553,87.7587 C151.5833,87.7587 151.4673,87.7937 151.4063,87.8627 C151.3453,87.9317 151.3143,88.0497 151.3143,88.2127 C151.3143,88.3757 151.3453,88.4897 151.4063,88.5547 C151.4673,88.6217 151.5833,88.6537 151.7553,88.6537 L152.8343,88.6537 C152.6543,89.1347 152.4563,89.6177 152.2393,90.0997 C152.0233,90.5817 151.8053,91.0367 151.5833,91.4667 C151.3643,91.8947 151.1553,92.2767 150.9593,92.6127 C150.7633,92.9467 150.5953,93.2007 150.4563,93.3727 C150.3173,93.5677 150.2523,93.7157 150.2603,93.8127 C150.2693,93.9107 150.3383,94.0177 150.4693,94.1327 C150.7053,94.3287 150.9633,94.2497 151.2403,93.8987 C151.5273,93.4987 151.8233,93.0087 152.1293,92.4277 C152.4363,91.8477 152.7193,91.2307 152.9823,90.5777 L152.9823,95.5907 C152.9823,95.7617 153.0183,95.8787 153.0913,95.9397 C153.1653,96.0007 153.2833,96.0317 153.4473,96.0317 C153.6183,96.0317 153.7353,96.0007 153.7963,95.9397 C153.8573,95.8787 153.8883,95.7617 153.8883,95.5907 L153.8883,90.2217 C154.0353,90.5737 154.1913,90.9307 154.3543,91.2947 C154.5173,91.6577 154.6853,92.0147 154.8563,92.3667 C155.0283,92.7187 155.1983,93.0527 155.3713,93.3727 C155.5423,93.6897 155.7103,93.9767 155.8733,94.2297 C155.9713,94.4267 156.0853,94.5407 156.2173,94.5727 C156.3473,94.6057 156.4833,94.5767 156.6213,94.4867 C156.7513,94.3977 156.8173,94.2707 156.8173,94.1067 C156.8173,93.9437 156.7483,93.7767 156.6093,93.6047 C156.4533,93.3847 156.2683,93.0817 156.0513,92.6977" id="Fill-14" fill="#FEFEFE"></path>
                    <path d="M169.024,86.4467 L172.688,86.4467 C172.868,86.4467 172.999,86.4187 173.08,86.3617 C173.162,86.3037 173.203,86.1857 173.203,86.0067 C173.203,85.8427 173.162,85.7287 173.08,85.6627 C172.999,85.5977 172.868,85.5647 172.688,85.5647 L171.512,85.5647 C171.479,85.3857 171.44,85.2237 171.395,85.0807 C171.35,84.9377 171.307,84.8097 171.266,84.6947 C171.176,84.4737 171.077,84.3377 170.966,84.2847 C170.856,84.2307 170.727,84.2337 170.581,84.2907 C170.425,84.3727 170.334,84.4717 170.304,84.5917 C170.276,84.7097 170.31,84.8617 170.409,85.0507 C170.449,85.1157 170.483,85.1957 170.506,85.2887 C170.531,85.3837 170.556,85.4747 170.581,85.5647 L169,85.5647 C168.819,85.5647 168.693,85.5987 168.62,85.6687 C168.545,85.7387 168.508,85.8547 168.508,86.0187 C168.508,86.1977 168.552,86.3147 168.638,86.3677 C168.723,86.4217 168.852,86.4467 169.024,86.4467" id="Fill-16" fill="#FEFEFE"></path>
                    <path d="M176.0835,90.2709 L174.7475,90.2709 C174.6005,90.2709 174.5255,90.2139 174.5255,90.0999 L174.5255,88.5679 C174.5255,88.5019 174.5405,88.4589 174.5695,88.4389 C174.5985,88.4179 174.6575,88.4089 174.7475,88.4089 L176.0835,88.4089 L176.0835,90.2709 Z M176.9905,88.4089 L178.3625,88.4089 C178.4365,88.4089 178.4845,88.4179 178.5105,88.4389 C178.5335,88.4589 178.5465,88.5019 178.5465,88.5679 L178.5465,90.0999 C178.5465,90.1659 178.5335,90.2099 178.5105,90.2349 C178.4845,90.2579 178.4325,90.2709 178.3505,90.2709 L176.9905,90.2709 L176.9905,88.4089 Z M179.5635,94.2169 C179.0815,93.8169 178.6345,93.3789 178.2225,92.9069 C177.8095,92.4319 177.3985,91.8479 176.9905,91.1539 L176.9905,91.1409 L178.4605,91.1409 C178.8205,91.1409 179.0735,91.0659 179.2205,90.9149 C179.3675,90.7639 179.4405,90.4839 179.4405,90.0749 L179.4405,88.5309 C179.4405,88.1629 179.3615,87.9059 179.2015,87.7579 C179.0425,87.6119 178.7955,87.5389 178.4605,87.5389 L176.9905,87.5389 L176.9905,86.5579 L179.2815,86.5579 C179.4535,86.5579 179.5805,86.5269 179.6625,86.4659 C179.7425,86.4049 179.7835,86.2919 179.7835,86.1279 C179.7835,85.8179 179.6165,85.6629 179.2815,85.6629 L176.9905,85.6629 L176.9905,84.7809 C176.9905,84.5919 176.9565,84.4589 176.8925,84.3819 C176.8265,84.3039 176.7125,84.2659 176.5485,84.2659 C176.3855,84.2659 176.2675,84.3039 176.1935,84.3819 C176.1205,84.4589 176.0835,84.5919 176.0835,84.7809 L176.0835,85.6629 L173.7665,85.6629 C173.6035,85.6629 173.4845,85.6979 173.4115,85.7669 C173.3385,85.8359 173.3015,85.9539 173.3015,86.1169 C173.3015,86.2799 173.3445,86.3939 173.4305,86.4589 C173.5155,86.5259 173.6325,86.5579 173.7785,86.5579 L176.0835,86.5579 L176.0835,87.5389 L174.6615,87.5389 C174.2945,87.5389 174.0315,87.6079 173.8765,87.7469 C173.7215,87.8849 173.6445,88.1469 173.6445,88.5309 L173.6445,90.0749 C173.6445,90.5169 173.7215,90.8049 173.8765,90.9389 C174.0315,91.0739 174.2945,91.1409 174.6615,91.1409 L175.8505,91.1409 C175.4745,91.8929 175.0725,92.5409 174.6435,93.0839 C174.2145,93.6269 173.7375,94.1239 173.2155,94.5729 C173.0515,94.7199 172.9425,94.8569 172.8905,94.9839 C172.8375,95.1099 172.8595,95.2429 172.9585,95.3819 C173.0635,95.5289 173.1765,95.6009 173.2945,95.5959 C173.4135,95.5919 173.5625,95.5079 173.7425,95.3449 C174.2565,94.8879 174.7035,94.4259 175.0845,93.9599 C175.4645,93.4949 175.7975,93.0039 176.0835,92.4899 L176.0835,95.4429 C176.0835,95.6389 176.1205,95.7779 176.1935,95.8599 C176.2675,95.9419 176.3855,95.9819 176.5485,95.9819 C176.8435,95.9819 176.9905,95.8029 176.9905,95.4429 L176.9905,92.6979 C177.2675,93.1139 177.5715,93.5119 177.9025,93.8919 C178.2335,94.2719 178.6155,94.6509 179.0495,95.0259 C179.3845,95.3289 179.6455,95.3489 179.8335,95.0879 C179.9235,94.9729 179.9475,94.8399 179.9065,94.6899 C179.8655,94.5379 179.7515,94.3809 179.5635,94.2169 Z" id="Fill-18" fill="#FEFEFE"></path>
                    <path d="M173.1294,92.1957 C173.1294,92.0317 173.0884,91.9177 173.0064,91.8527 C172.9244,91.7867 172.7944,91.7547 172.6144,91.7547 L171.3034,91.7547 C171.3274,91.5417 171.3484,91.3147 171.3634,91.0737 C171.3814,90.8337 171.3934,90.5817 171.4004,90.3207 L172.8594,90.3207 C173.0394,90.3207 173.1704,90.2927 173.2524,90.2347 C173.3334,90.1767 173.3744,90.0587 173.3744,89.8787 C173.3744,89.7167 173.3334,89.6007 173.2524,89.5357 C173.1704,89.4697 173.0394,89.4377 172.8594,89.4377 L172.1494,89.4377 C172.2874,89.1027 172.4144,88.7697 172.5284,88.4387 C172.6434,88.1077 172.7454,87.7707 172.8354,87.4277 C172.9084,87.0927 172.8034,86.8887 172.5164,86.8147 C172.3774,86.7827 172.2534,86.8007 172.1434,86.8707 C172.0314,86.9397 171.9574,87.0597 171.9164,87.2317 C171.8254,87.6327 171.7304,88.0047 171.6284,88.3467 C171.5254,88.6907 171.3934,89.0537 171.2304,89.4377 L170.5434,89.4377 C170.5754,89.3877 170.5924,89.3277 170.5924,89.2547 C170.5924,89.1807 170.5844,89.0867 170.5674,88.9717 C170.5344,88.7757 170.5084,88.6147 170.4884,88.4877 C170.4674,88.3617 170.4424,88.2417 170.4144,88.1267 C170.3854,88.0117 170.3514,87.8907 170.3104,87.7637 C170.2704,87.6377 170.2204,87.4807 170.1634,87.2927 C170.0984,87.0807 170.0144,86.9457 169.9124,86.8887 C169.8104,86.8317 169.6864,86.8317 169.5384,86.8887 C169.2524,86.9867 169.1664,87.1907 169.2804,87.5017 C169.3714,87.7387 169.4414,87.9787 169.4954,88.2247 C169.5494,88.4687 169.6044,88.7637 169.6604,89.1067 C169.6694,89.2547 169.7054,89.3647 169.7714,89.4377 L168.7904,89.4377 C168.6104,89.4377 168.4834,89.4727 168.4104,89.5427 C168.3374,89.6117 168.3004,89.7277 168.3004,89.8907 C168.3004,90.0707 168.3434,90.1877 168.4294,90.2407 C168.5154,90.2937 168.6444,90.3207 168.8154,90.3207 L170.4944,90.3207 C170.4784,90.5907 170.4644,90.8427 170.4514,91.0807 C170.4394,91.3167 170.4204,91.5417 170.3974,91.7547 L169.0364,91.7547 C168.8564,91.7547 168.7304,91.7897 168.6564,91.8587 C168.5824,91.9277 168.5454,92.0447 168.5454,92.2077 C168.5454,92.3877 168.5884,92.5037 168.6744,92.5567 C168.7604,92.6097 168.8884,92.6357 169.0604,92.6357 L170.2244,92.6357 C170.1094,93.1107 169.9444,93.5227 169.7294,93.8747 C169.5124,94.2247 169.2324,94.5687 168.8884,94.9037 C168.5454,95.2307 168.4924,95.5117 168.7304,95.7497 C168.8594,95.8807 168.9924,95.9287 169.1284,95.8957 C169.2624,95.8637 169.4364,95.7287 169.6494,95.4927 C170.0244,95.0667 170.3344,94.6327 170.5804,94.1867 C170.8254,93.7417 171.0174,93.2237 171.1564,92.6357 L172.6144,92.6357 C172.7944,92.6357 172.9244,92.6077 173.0064,92.5497 C173.0884,92.4937 173.1294,92.3757 173.1294,92.1957" id="Fill-20" fill="#FEFEFE"></path>
                    <path d="M192.4702,87.2318 C192.9762,87.4438 193.4492,87.6888 193.8912,87.9668 C194.0782,88.0818 194.2262,88.1428 194.3322,88.1508 C194.4392,88.1598 194.5362,88.1018 194.6262,87.9788 C194.7332,87.8238 194.7762,87.6978 194.7552,87.5988 C194.7352,87.5018 194.6432,87.3998 194.4802,87.2928 C194.2012,87.1138 193.9392,86.9578 193.6892,86.8278 C193.4402,86.6968 193.1802,86.5698 192.9102,86.4468 C192.7052,86.3488 192.5492,86.3128 192.4392,86.3358 C192.3282,86.3618 192.2372,86.4518 192.1632,86.6068 C192.0972,86.7458 192.0852,86.8648 192.1262,86.9618 C192.1672,87.0598 192.2822,87.1498 192.4702,87.2318" id="Fill-22" fill="#FEFEFE"></path>
                    <path d="M192.7759,91.3373 C193.2909,90.9853 193.7429,90.6353 194.1299,90.2833 C194.5179,89.9323 194.8919,89.5433 195.2519,89.1183 C195.3669,88.9803 195.4299,88.8563 195.4419,88.7453 C195.4539,88.6353 195.3989,88.5233 195.2759,88.4083 C195.1539,88.2933 195.0349,88.2473 194.9209,88.2673 C194.8059,88.2883 194.6749,88.3923 194.5289,88.5793 C194.2019,88.9883 193.8629,89.3483 193.5109,89.6583 C193.1609,89.9693 192.7519,90.2793 192.2859,90.5903 C192.0899,90.7123 191.9729,90.8343 191.9359,90.9573 C191.8999,91.0803 191.9219,91.1983 192.0039,91.3133 C192.1829,91.5583 192.4409,91.5663 192.7759,91.3373" id="Fill-24" fill="#FEFEFE"></path>
                    <path d="M193.0699,85.2953 C193.3319,85.4343 193.5929,85.5873 193.8539,85.7543 C194.1159,85.9223 194.3529,86.0833 194.5659,86.2383 C194.7449,86.3703 194.8919,86.4403 195.0069,86.4463 C195.1209,86.4553 195.2229,86.4023 195.3129,86.2883 C195.4269,86.1413 195.4699,86.0193 195.4419,85.9203 C195.4129,85.8223 195.3329,85.7203 195.2029,85.6133 C194.9409,85.4093 194.6699,85.2153 194.3879,85.0313 C194.1059,84.8483 193.8349,84.6873 193.5729,84.5473 C193.3769,84.4333 193.2229,84.3843 193.1129,84.4003 C193.0029,84.4173 192.9019,84.4983 192.8129,84.6463 C192.7309,84.7843 192.7059,84.9023 192.7399,85.0003 C192.7719,85.0993 192.8829,85.1963 193.0699,85.2953" id="Fill-26" fill="#FEFEFE"></path>
                    <path d="M203.2242,95.1488 C203.1382,95.0508 202.9642,94.9858 202.7032,94.9528 C202.1152,94.8708 201.5872,94.7588 201.1212,94.6158 C200.6572,94.4728 200.2382,94.2808 199.8662,94.0408 C199.4952,93.7988 199.1572,93.5048 198.8552,93.1578 C198.5522,92.8098 198.2662,92.3878 197.9972,91.8888 C197.9972,91.8318 197.9982,91.7768 198.0032,91.7228 C198.0072,91.6698 198.0092,91.6108 198.0092,91.5458 C198.0092,91.5048 198.0072,91.4658 198.0032,91.4288 C197.9982,91.3918 197.9972,91.3578 197.9972,91.3248 C198.0712,91.2928 198.1722,91.2308 198.3032,91.1408 C198.6052,90.9198 198.8712,90.7048 199.1002,90.4918 C199.3282,90.2798 199.5292,90.0588 199.7012,89.8308 C199.8712,89.6008 200.0232,89.3518 200.1542,89.0828 C200.2852,88.8118 200.4032,88.5098 200.5092,88.1748 L201.3792,88.1748 C201.5422,88.1748 201.6512,88.1998 201.7042,88.2488 C201.7572,88.2978 201.7762,88.4318 201.7592,88.6538 C201.7182,89.2578 201.6412,89.7558 201.5272,90.1478 C201.4692,90.3118 201.4022,90.4238 201.3252,90.4858 C201.2462,90.5458 201.1512,90.5688 201.0362,90.5528 C200.9382,90.5368 200.8112,90.5098 200.6572,90.4728 C200.5012,90.4358 200.3212,90.3848 200.1182,90.3208 C199.8882,90.2468 199.7162,90.2328 199.6022,90.2768 C199.4882,90.3218 199.4032,90.4388 199.3452,90.6268 C199.3042,90.7738 199.3272,90.8878 199.4122,90.9698 C199.4982,91.0518 199.6272,91.1218 199.7982,91.1778 C200.0842,91.2678 200.3252,91.3318 200.5212,91.3688 C200.7172,91.4048 200.8892,91.4228 201.0362,91.4228 C201.4122,91.4228 201.7012,91.3598 201.9012,91.2328 C202.1002,91.1068 202.2582,90.8468 202.3722,90.4548 C202.3972,90.3658 202.4232,90.2518 202.4522,90.1118 C202.4802,89.9728 202.5072,89.8218 202.5312,89.6588 C202.5562,89.4958 202.5782,89.3278 202.5992,89.1558 C202.6202,88.9848 202.6342,88.8168 202.6422,88.6538 C202.6582,88.3838 202.6572,88.1618 202.6352,87.9858 C202.6162,87.8098 202.5692,87.6718 202.4952,87.5748 C202.4212,87.4758 202.3152,87.4078 202.1762,87.3668 C202.0372,87.3268 201.8622,87.3048 201.6502,87.3048 L198.1812,87.3048 C198.0342,87.3048 198.0302,87.2808 198.1682,87.2318 L200.6942,86.3128 C201.0112,86.1978 201.2462,86.0568 201.3982,85.8898 C201.5492,85.7218 201.6132,85.5628 201.5872,85.4118 C201.5632,85.2598 201.4512,85.1298 201.2512,85.0188 C201.0502,84.9088 200.7542,84.8538 200.3622,84.8538 L196.2692,84.8538 C195.9342,84.8538 195.7662,85.0048 195.7662,85.3068 C195.7662,85.6018 195.9342,85.7488 196.2692,85.7488 L199.7742,85.7488 C199.9382,85.7488 199.9452,85.7728 199.7982,85.8228 L196.9922,86.8388 C196.7312,86.9378 196.5302,87.0578 196.3922,87.2008 C196.2522,87.3438 196.1852,87.4848 196.1902,87.6248 C196.1932,87.7628 196.2752,87.8848 196.4342,87.9918 C196.5932,88.0978 196.8362,88.1598 197.1632,88.1748 C196.9592,88.5918 196.7032,88.9578 196.3982,89.2728 C196.0912,89.5868 195.7172,89.8778 195.2762,90.1478 C195.0632,90.2798 194.9352,90.4078 194.8902,90.5348 C194.8452,90.6608 194.8682,90.7938 194.9572,90.9328 C195.0472,91.0638 195.1492,91.1328 195.2632,91.1408 C195.3782,91.1498 195.5372,91.0878 195.7422,90.9578 C196.0442,90.7698 196.3142,90.5808 196.5512,90.3878 C196.7872,90.1958 197.0002,89.9888 197.1882,89.7678 C197.3762,89.5478 197.5452,89.3068 197.6972,89.0448 C197.8482,88.7838 197.9972,88.4948 198.1442,88.1748 L199.5902,88.1748 C199.4032,88.6658 199.1672,89.0808 198.8852,89.4198 C198.6032,89.7578 198.2342,90.0788 197.7762,90.3808 C197.6052,90.4958 197.4952,90.5958 197.4462,90.6818 C197.3962,90.7678 197.3802,90.8558 197.3962,90.9448 C197.1842,90.9948 197.0782,91.1948 197.0782,91.5458 C197.0782,92.0598 196.9842,92.5058 196.7952,92.8808 C196.6082,93.2578 196.3202,93.5828 195.9312,93.8558 C195.5432,94.1288 195.0492,94.3568 194.4492,94.5368 C193.8482,94.7148 193.1352,94.8588 192.3102,94.9648 C192.0492,95.0058 191.8702,95.0718 191.7712,95.1618 C191.6732,95.2508 191.6362,95.3888 191.6612,95.5788 C191.6762,95.7568 191.7432,95.8668 191.8572,95.9028 C191.9712,95.9398 192.1472,95.9458 192.3832,95.9208 C193.8862,95.7568 195.0742,95.4368 195.9442,94.9588 C196.8142,94.4808 197.4052,93.8668 197.7152,93.1138 C197.9602,93.4988 198.2322,93.8368 198.5302,94.1318 C198.8282,94.4258 199.1692,94.6848 199.5532,94.9108 C199.9382,95.1348 200.3742,95.3268 200.8652,95.4868 C201.3552,95.6448 201.9112,95.7818 202.5312,95.8958 C202.8182,95.9538 203.0142,95.9588 203.1202,95.9088 C203.2262,95.8598 203.2912,95.7458 203.3162,95.5658 C203.3402,95.3858 203.3102,95.2468 203.2242,95.1488" id="Fill-28" fill="#FEFEFE"></path>
                    <path d="M201.1529,91.5023 C201.0429,91.5563 200.9229,91.6803 200.7919,91.8763 C200.6849,92.0403 200.5559,92.2143 200.4059,92.3983 C200.2549,92.5813 200.0809,92.7553 199.8839,92.9183 C199.7139,93.0733 199.6059,93.2043 199.5649,93.3103 C199.5249,93.4173 199.5579,93.5343 199.6639,93.6663 C199.7779,93.8053 199.8969,93.8663 200.0189,93.8503 C200.1409,93.8333 200.2809,93.7603 200.4359,93.6293 C200.6479,93.4493 200.8529,93.2453 201.0489,93.0163 C201.2449,92.7873 201.4239,92.5433 201.5879,92.2803 C201.6939,92.1093 201.7429,91.9683 201.7349,91.8583 C201.7269,91.7483 201.6529,91.6483 201.5139,91.5583 C201.3839,91.4683 201.2629,91.4493 201.1529,91.5023" id="Fill-30" fill="#FEFEFE"></path>
                    <path d="M194.5034,91.4105 C194.3644,91.3785 194.2524,91.4025 194.1674,91.4835 C194.0814,91.5655 194.0014,91.7135 193.9274,91.9265 C193.8624,92.1215 193.7724,92.3475 193.6584,92.5995 C193.5434,92.8525 193.4134,93.0945 193.2664,93.3225 C193.1444,93.5115 193.0804,93.6645 193.0754,93.7815 C193.0714,93.9005 193.1354,94.0015 193.2664,94.0825 C193.4044,94.1735 193.5314,94.1985 193.6464,94.1625 C193.7604,94.1255 193.8864,93.9925 194.0254,93.7645 C194.1644,93.5435 194.2974,93.2985 194.4244,93.0285 C194.5504,92.7595 194.6674,92.4805 194.7744,92.1955 C194.8634,91.9415 194.8824,91.7585 194.8284,91.6435 C194.7754,91.5295 194.6674,91.4515 194.5034,91.4105" id="Fill-32" fill="#FEFEFE"></path>
                    <path d="M16.0301,101.5489 C7.1771,101.5489 0.0001,94.3729 0.0001,85.5199 C0.0001,76.6659 7.1771,69.4909 16.0301,69.4909 C24.8821,69.4909 32.0591,76.6659 32.0591,85.5199 C32.0591,94.3729 24.8821,101.5489 16.0301,101.5489 Z" id="Fill-34" fill="#FF6000"></path>
                    <path d="M22.1343,81.9457 C22.1343,81.9457 16.0303,73.0987 16.0303,69.4907 C16.0303,73.0987 9.9243,81.9457 9.9243,81.9457 C9.3013,83.0037 8.9193,84.2197 8.9193,85.5357 C8.9193,89.4627 12.1033,92.6447 16.0303,92.6447 C19.9563,92.6447 23.1393,89.4627 23.1393,85.5357 C23.1393,84.2197 22.7573,83.0037 22.1343,81.9457" id="Fill-36" fill="#FEFEFE"></path>
                    <path d="M24.4693,22.9926 L7.5903,22.9926 C5.7003,22.9926 4.1693,24.5236 4.1693,26.4126 C4.1693,28.3016 5.7003,29.8326 7.5903,29.8326 L24.4693,29.8326 C26.3583,29.8326 27.8893,28.3016 27.8893,26.4126 C27.8893,24.5236 26.3583,22.9926 24.4693,22.9926" id="Fill-38" fill="#FEFEFE"></path>
                    <path d="M24.4693,50.2699 L7.5903,50.2699 C5.7003,50.2699 4.1693,51.8009 4.1693,53.6899 C4.1693,55.5799 5.7003,57.1099 7.5903,57.1099 L24.4693,57.1099 C26.3583,57.1099 27.8893,55.5799 27.8893,53.6899 C27.8893,51.8009 26.3583,50.2699 24.4693,50.2699" id="Fill-40" fill="#FEFEFE"></path>
                    <path d="M57.3941,50.2699 L36.0001,50.2699 C34.1121,50.2699 32.5811,51.8009 32.5811,53.6899 C32.5811,55.5799 34.1121,57.1099 36.0001,57.1099 L41.5961,57.1099 L34.1281,74.9419 C33.3991,76.6839 34.2191,78.6879 35.9611,79.4169 C37.7041,80.1469 39.7071,79.3269 40.4371,77.5839 L49.0121,57.1099 L57.2481,57.1099 L41.5501,94.5929 C40.8211,96.3349 41.6411,98.3389 43.3841,99.0689 C45.1261,99.7979 47.1291,98.9769 47.8591,97.2349 L64.1121,58.4279 C70.8331,61.1689 75.5251,67.8889 75.2321,75.6489 C74.8671,85.3079 66.6231,92.8099 56.9571,92.8099 L56.6741,92.8099 C54.7851,92.8099 53.2531,94.3409 53.2531,96.2299 C53.2531,98.1199 54.7851,99.6509 56.6741,99.6509 L56.8701,99.6509 C70.3041,99.6509 81.6741,89.1359 82.0741,75.7069 C82.4881,61.7529 71.2571,50.2699 57.3941,50.2699" id="Fill-42" fill="#FEFEFE"></path>
                    <path d="M137.1079,52.0502 C133.5999,52.0502 130.7479,49.1962 130.7479,45.6892 C130.7479,42.1812 133.5999,39.3282 137.1079,39.3282 C140.6149,39.3282 143.4679,42.1812 143.4679,45.6892 C143.4679,49.1962 140.6149,52.0502 137.1079,52.0502 M137.1079,32.9152 C130.0649,32.9152 124.3349,38.6462 124.3349,45.6892 C124.3349,52.7322 130.0649,58.4622 137.1079,58.4622 C144.1509,58.4622 149.8799,52.7322 149.8799,45.6892 C149.8799,38.6462 144.1509,32.9152 137.1079,32.9152" id="Fill-44" fill="#FEFEFE"></path>
                    <path d="M52.3902,48.3295 C63.5882,48.7315 72.8272,39.7375 72.8272,28.6275 L72.8272,26.7695 C72.8272,24.6835 71.1352,22.9925 69.0482,22.9925 L62.3612,22.9925 C63.0342,18.8895 64.4422,16.0605 66.5542,14.5975 C67.5252,13.9245 68.5302,13.6375 69.3502,13.5265 C70.4482,13.3795 71.3492,12.5955 71.5982,11.5165 C72.0102,9.7295 70.5102,8.0955 68.6922,8.3315 C67.2162,8.5225 65.4502,9.0345 63.6962,10.2175 C60.2702,12.5295 58.0742,16.6025 57.1672,22.3245 C56.8252,24.4955 55.0782,31.0875 46.6522,30.8845 C45.3232,30.8515 44.1652,31.7825 43.9662,33.0975 C43.7342,34.6385 44.8972,36.0655 46.4552,36.0945 C52.1822,36.2005 56.9072,33.9085 59.7312,29.8325 L65.9302,29.8325 C65.2892,36.7095 59.2172,42.0325 52.0582,41.4595 C45.3102,40.9195 40.2392,35.0275 40.2392,28.2585 L40.2392,26.4865 C49.8922,26.1645 52.7102,23.4255 53.7032,15.9085 C55.0352,5.8425 63.2182,3.8505 66.6632,3.4585 C67.5322,3.3595 68.1832,2.6285 68.1942,1.7635 C68.2072,0.7085 67.2802,-0.1195 66.2252,0.0145 C61.8822,0.5655 51.8282,3.1705 50.2052,15.4455 C49.4492,21.1755 47.6402,23.4395 37.2172,23.0325 C37.0852,23.0175 36.9552,22.9925 36.8182,22.9925 C34.9292,22.9925 33.3982,24.5235 33.3982,26.4125 L33.3982,28.1055 C33.3982,38.8035 41.7002,47.9445 52.3902,48.3295" id="Fill-46" fill="#FEFEFE"></path>
                    <path d="M101.5777,31.0775 C99.8357,30.3485 97.8317,31.1695 97.1017,32.9115 L87.1687,56.6295 C86.4387,58.3715 87.2607,60.3755 89.0027,61.1045 C90.7447,61.8345 92.7477,61.0145 93.4777,59.2715 L103.4107,35.5535 C104.1407,33.8105 103.3197,31.8065 101.5777,31.0775" id="Fill-48" fill="#FEFEFE"></path>
                    <path d="M114.8199,14.9047 C112.9309,14.9047 111.3999,16.4357 111.3999,18.3247 L111.3999,57.2877 C111.3999,62.8227 106.9139,67.3097 101.3789,67.3097 L99.5879,67.3097 C97.6989,67.3097 96.1679,68.8417 96.1679,70.7297 C96.1679,72.6187 97.6989,74.1497 99.5879,74.1497 L101.3789,74.1497 C110.6909,74.1497 118.2409,66.5997 118.2409,57.2877 L118.2409,18.3247 C118.2409,16.4357 116.7099,14.9047 114.8199,14.9047" id="Fill-50" fill="#FEFEFE"></path>
                    <path d="M171.3599,21.1996 L171.8389,21.1996 C174.4279,21.1996 176.5349,23.3056 176.5349,25.8946 L176.5349,37.1146 C176.5349,39.7046 174.4279,41.8116 171.8389,41.8116 L171.3599,41.8116 C168.7709,41.8116 166.6649,39.7046 166.6649,37.1146 L166.6649,34.3276 L170.9459,34.3276 C172.4809,34.3276 173.7249,33.0836 173.7249,31.5496 C173.7249,30.0136 172.4809,28.7696 170.9459,28.7696 L166.6649,28.7696 L166.6649,25.8946 C166.6649,23.3056 168.7709,21.1996 171.3599,21.1996 M171.3599,48.2236 L171.8389,48.2236 C177.9639,48.2236 182.9469,43.2406 182.9469,37.1146 L182.9469,25.8946 C182.9469,19.7696 177.9639,14.7866 171.8389,14.7866 L171.3599,14.7866 C165.2349,14.7866 160.2519,19.7696 160.2519,25.8946 L160.2519,37.1146 C160.2519,43.2406 165.2349,48.2236 171.3599,48.2236" id="Fill-52" fill="#FEFEFE"></path>
                    <path d="M189.5513,48.4379 C191.3223,48.4379 192.7573,47.0019 192.7573,45.2319 L192.7573,39.3229 L196.7743,39.3229 C198.3083,39.3229 199.5523,38.0789 199.5523,36.5439 C199.5523,35.0089 198.3083,33.7649 196.7743,33.7649 L192.7573,33.7649 L192.7573,31.2219 L196.7743,31.2219 C198.3083,31.2219 199.5523,29.9779 199.5523,28.4439 C199.5523,26.9089 198.3083,25.6649 196.7743,25.6649 L192.7573,25.6649 L192.7573,25.0409 C192.7573,22.4469 194.8603,20.3439 197.4533,20.3439 L197.9313,20.3439 C200.5253,20.3439 202.6273,22.4469 202.6273,25.0409 L202.6273,37.9699 C202.6273,39.9129 201.4433,41.5839 199.7573,42.2969 C198.6153,42.7809 197.9313,43.9659 197.9313,45.2069 C197.9313,47.5389 200.3413,49.0659 202.4683,48.1099 C206.3383,46.3709 209.0393,42.4799 209.0393,37.9699 L209.0393,25.0419 C209.0393,18.9059 204.0663,13.9319 197.9313,13.9319 L197.4533,13.9319 C191.3183,13.9319 186.3443,18.9059 186.3443,25.0409 L186.3443,45.2319 C186.3443,47.0019 187.7803,48.4379 189.5513,48.4379" id="Fill-54" fill="#FEFEFE"></path>
                    <path d="M165.3784,62.1098 C165.3784,59.2478 167.7074,56.9188 170.5694,56.9188 L175.2864,56.9188 L170.8454,67.5238 L165.3784,67.5238 L165.3784,62.1098 Z M186.3874,67.5238 L177.7974,67.5238 L182.2384,56.9188 L190.8284,56.9188 L186.3874,67.5238 Z M203.9594,62.1098 L203.9594,67.5238 L193.3394,67.5238 L197.7804,56.9188 L198.7674,56.9188 C201.6304,56.9188 203.9594,59.2478 203.9594,62.1098 Z M211.7374,67.5238 L210.3714,67.5238 L210.3714,62.1098 C210.3714,55.7118 205.1654,50.5058 198.7674,50.5058 L170.5694,50.5058 C164.1714,50.5058 158.9664,55.7118 158.9664,62.1098 L158.9664,67.5238 L149.7604,67.5238 C147.9894,67.5238 146.5544,68.9598 146.5544,70.7298 C146.5544,72.5008 147.9894,73.9358 149.7604,73.9358 L211.7374,73.9358 C213.5084,73.9358 214.9434,72.5008 214.9434,70.7298 C214.9434,68.9598 213.5084,67.5238 211.7374,67.5238 Z" id="Fill-56" fill="#FEFEFE"></path>
                    <path d="M140.7417,67.5238 L133.4727,67.5238 C131.7027,67.5238 130.2667,68.9598 130.2667,70.7298 C130.2667,72.5008 131.7027,73.9358 133.4727,73.9358 L140.7417,73.9358 C142.5127,73.9358 143.9477,72.5008 143.9477,70.7298 C143.9477,68.9598 142.5127,67.5238 140.7417,67.5238" id="Fill-58" fill="#FEFEFE"></path>
                </g>
            </g>
        </g>
    </g>
</svg>