<svg xmlns="http://www.w3.org/2000/svg" width="33" height="20" viewBox="0 0 33 20">
  <g fill="#FFF">
    <path d="M33 19.0009024C33 19.5525851 32.6055097 20 32.1199907 20L.879612204 20C.394126348 20 0 19.5525851 0 19.0009024 0 18.4483549.394126348 18 .879612204 18L32.1200238 18C32.6055096 18 33 18.4483549 33 19.0009024zM33 1C33 .447414917 32.6055097 0 32.1199907 0L.879612204 1.04434647e-15C.394126348 1.04434647e-15 0 .447414917 0 1 0 1.55258508.394126348 2 .879612204 2L32.1200238 2C32.6055096 2.00000004 33 1.55258508 33 1zM33 9.99998121C33 10.5525559 32.6055097 11 32.1199907 11L.879612204 11C.394126348 11 0 10.5525935 0 9.99998117 0 9.44830889.394126348 9 .879612204 9L32.1200238 9C32.6055096 9 33 9.44830892 33 9.99998121z"/>
  </g>
</svg>
