<?xml version="1.0" encoding="UTF-8"?>
<svg width="49px" height="43px" viewBox="0 0 49 43" version="1.1" xmlns="http://www.w3.org/2000/svg" xmlns:xlink="http://www.w3.org/1999/xlink">
    <!-- Generator: Sketch 49.2 (51160) - http://www.bohemiancoding.com/sketch -->
    <title>向下</title>
    <desc>Created with Sketch.</desc>
    <defs></defs>
    <g id="Page-1" stroke="none" stroke-width="1" fill="none" fill-rule="evenodd">
        <g id="越麦越红火品牌官网" transform="translate(-936.000000, -860.000000)" fill="#FFFFFF" fill-rule="nonzero">
            <g id="向下" transform="translate(936.000000, 860.000000)">
                <g id="Group-11">
                    <path d="M24.5,10.0638298 C25.5188434,10.0638298 26.3148148,10.8591476 26.3148148,11.8074112 L26.3148148,28.4479079 C26.3148148,29.4267607 25.4870045,30.1914894 24.5,30.1914894 C23.5129955,30.1914894 22.6851852,29.3961715 22.6851852,28.4479079 L22.6851852,11.8074112 C22.6851852,10.8285585 23.4811566,10.0638298 24.5,10.0638298 Z" id="Shape"></path>
                    <path d="M24.5,0 C25.5188434,0 26.3148148,0.834639791 26.3148148,1.82978723 L26.3148148,5.4893617 C26.3148148,6.51661068 25.4870045,7.31914894 24.5,7.31914894 C23.5129955,7.31914894 22.6851852,6.48450915 22.6851852,5.4893617 L22.6851852,1.82978723 C22.6851852,0.834639791 23.4811566,0 24.5,0 Z" id="Shape"></path>
                    <path d="M47.2342197,17.3829787 C47.7030109,17.3829787 48.1405494,17.5654145 48.4843296,17.89988 C49.1718901,18.5688112 49.1718901,19.6938317 48.4843296,20.3627628 L25.7323282,42.4983017 C25.0447677,43.1672328 23.888416,43.1672328 23.2008555,42.4983017 C22.5132951,41.8293705 22.5132951,40.70435 23.2008555,40.0354189 L45.952857,17.89988 C46.3278899,17.5654145 46.7966812,17.3829787 47.2342197,17.3829787 Z" id="Shape"></path>
                    <path d="M1.79703308,17.3829787 C2.26582432,17.3829787 2.7033628,17.5654145 3.04714305,17.89988 L25.7991445,40.0354189 C26.4867049,40.70435 26.4867049,41.8293705 25.7991445,42.4983017 C25.111584,43.1672328 23.9552323,43.1672328 23.2676718,42.4983017 L0.515670362,20.3627628 C-0.171890121,19.6938317 -0.171890121,18.5688112 0.515670362,17.89988 C0.859450603,17.5654145 1.32824184,17.3829787 1.79703308,17.3829787 Z" id="Shape"></path>
                </g>
            </g>
        </g>
    </g>
</svg>