<?xml version="1.0" encoding="UTF-8"?>
<svg width="144px" height="68px" viewBox="0 0 144 68" version="1.1" xmlns="http://www.w3.org/2000/svg" xmlns:xlink="http://www.w3.org/1999/xlink">
    <!-- Generator: Sketch 49.2 (51160) - http://www.bohemiancoding.com/sketch -->
    <title>7</title>
    <desc>Created with Sketch.</desc>
    <defs>
        <polygon id="path-1" points="0.816 0.2295 88.468 0.2295 88.468 12.6235 0.816 12.6235"></polygon>
        <polygon id="path-3" points="0 0.8018 21.1978 0.8018 21.1978 22 0 22"></polygon>
    </defs>
    <g id="Page-1" stroke="none" stroke-width="1" fill="none" fill-rule="evenodd">
        <g id="越麦越红火品牌官网" transform="translate(-888.000000, -1835.000000)">
            <g id="Page-1" transform="translate(888.000000, 1835.000000)">
                <g id="Group-6">
                    <g id="Group-3" transform="translate(55.000000, 53.146000)">
                        <mask id="mask-2" fill="white">
                            <use xlink:href="#path-1"></use>
                        </mask>
                        <g id="Clip-2"></g>
                        <path d="M82.271,12.6235 L7.013,12.6235 C3.59,12.6235 0.816,9.8495 0.816,6.4275 C0.816,3.0045 3.59,0.2295 7.013,0.2295 L82.271,0.2295 C85.694,0.2295 88.468,3.0045 88.468,6.4275 C88.468,9.8495 85.694,12.6235 82.271,12.6235" id="Fill-1" fill="#EC6A00" mask="url(#mask-2)"></path>
                    </g>
                    <path d="M68.7427,60.3779 C68.7287,60.2859 68.6797,60.1829 68.5927,60.0699 C68.5447,60.0049 68.4777,59.9209 68.3937,59.8179 C68.3097,59.7159 68.2177,59.6069 68.1147,59.4899 C68.0127,59.3739 67.9007,59.2529 67.7817,59.1259 C67.6637,58.9989 67.5427,58.8729 67.4177,58.7489 L67.4177,58.6759 L68.5687,58.6759 C68.7737,58.6759 68.8767,58.5759 68.8767,58.3759 C68.8767,58.1819 68.7737,58.0849 68.5687,58.0849 L67.4177,58.0849 L67.4177,56.8199 C67.5907,56.7669 67.7517,56.7139 67.8997,56.6619 C68.0487,56.6109 68.1867,56.5559 68.3167,56.4959 C68.4897,56.4209 68.5907,56.3479 68.6167,56.2769 C68.6437,56.2069 68.6337,56.1179 68.5847,56.0099 C68.5037,55.8429 68.3307,55.8179 68.0657,55.9369 C67.9417,55.9959 67.7917,56.0579 67.6157,56.1189 C67.4407,56.1819 67.2517,56.2409 67.0497,56.2979 C66.8467,56.3549 66.6327,56.4059 66.4087,56.4549 C66.1837,56.5049 65.9647,56.5419 65.7487,56.5689 C65.5917,56.5909 65.4857,56.6299 65.4317,56.6869 C65.3777,56.7429 65.3557,56.8259 65.3677,56.9339 C65.3777,57.0529 65.4197,57.1269 65.4927,57.1559 C65.5657,57.1869 65.6827,57.1879 65.8457,57.1599 C66.2017,57.1069 66.5347,57.0419 66.8427,56.9659 L66.8427,58.0849 L65.5057,58.0849 C65.3917,58.0849 65.3127,58.1079 65.2697,58.1569 C65.2267,58.2059 65.2047,58.2789 65.2047,58.3759 C65.2047,58.4789 65.2267,58.5549 65.2697,58.6029 C65.3127,58.6509 65.3917,58.6759 65.5057,58.6759 L66.6067,58.6759 C66.5207,58.9249 66.4317,59.1549 66.3397,59.3689 C66.2477,59.5819 66.1477,59.7879 66.0397,59.9839 C65.9307,60.1819 65.8147,60.3789 65.6877,60.5759 C65.5607,60.7739 65.4157,60.9779 65.2537,61.1889 C65.1787,61.2909 65.1397,61.3909 65.1397,61.4879 C65.1397,61.5849 65.1857,61.6639 65.2787,61.7229 C65.3697,61.7819 65.4567,61.7979 65.5377,61.7679 C65.6187,61.7369 65.7027,61.6609 65.7887,61.5369 C66.0367,61.1749 66.2437,60.8439 66.4087,60.5439 C66.5727,60.2439 66.7187,59.9429 66.8427,59.6409 L66.8427,63.1419 C66.8427,63.2489 66.8637,63.3239 66.9067,63.3679 C66.9507,63.4109 67.0257,63.4329 67.1347,63.4329 C67.2257,63.4329 67.2957,63.4109 67.3447,63.3679 C67.3937,63.3239 67.4177,63.2489 67.4177,63.1419 L67.4177,59.5919 C67.5527,59.7489 67.6827,59.9099 67.8097,60.0779 C67.9367,60.2449 68.0467,60.3919 68.1387,60.5159 C68.2957,60.7319 68.4607,60.7669 68.6337,60.6209 C68.7197,60.5509 68.7567,60.4699 68.7427,60.3779" id="Fill-4" fill="#FEFEFE"></path>
                    <path d="M72.4058,61.8486 C72.3268,61.5046 72.2438,61.1536 72.1538,60.7906 C72.0648,60.4296 71.9718,60.0676 71.8748,59.7046 C71.7768,59.3436 71.6848,59.0026 71.5988,58.6846 C71.5608,58.5596 71.4988,58.4716 71.4128,58.4206 C71.3258,58.3696 71.2348,58.3656 71.1368,58.4086 C71.0288,58.4526 70.9678,58.5156 70.9508,58.5986 C70.9348,58.6826 70.9508,58.8026 70.9998,58.9596 C71.1448,59.4186 71.2828,59.8906 71.4128,60.3726 C71.5428,60.8576 71.6668,61.3766 71.7858,61.9336 C71.3808,61.9606 70.9658,61.9896 70.5418,62.0186 C70.1178,62.0486 69.7078,62.0776 69.3138,62.1036 C69.2548,62.1036 69.2158,62.0906 69.1958,62.0636 C69.1768,62.0356 69.1898,61.9686 69.2328,61.8616 C69.4758,61.1586 69.7408,60.3316 70.0268,59.3806 C70.3128,58.4296 70.6018,57.4046 70.8938,56.3016 C70.9428,56.1286 70.9508,56.0026 70.9188,55.9246 C70.8858,55.8466 70.8098,55.7966 70.6908,55.7756 C70.5668,55.7536 70.4768,55.7696 70.4208,55.8236 C70.3638,55.8776 70.3128,55.9806 70.2698,56.1306 C70.1078,56.7586 69.9558,57.3316 69.8118,57.8536 C69.6698,58.3746 69.5288,58.8666 69.3908,59.3276 C69.2538,59.7896 69.1158,60.2276 68.9768,60.6416 C68.8408,61.0546 68.6958,61.4636 68.5448,61.8686 C68.4198,62.2146 68.4038,62.4516 68.4958,62.5776 C68.5878,62.7046 68.7988,62.7546 69.1278,62.7276 L71.8988,62.5086 C71.9158,62.5786 71.9298,62.6516 71.9438,62.7236 C71.9578,62.7966 71.9718,62.8706 71.9878,62.9476 C72.0208,63.1196 72.0708,63.2276 72.1378,63.2706 C72.2058,63.3146 72.3018,63.3246 72.4268,63.3026 C72.6038,63.2706 72.6638,63.1006 72.6038,62.7926 C72.5508,62.5056 72.4838,62.1916 72.4058,61.8486" id="Fill-6" fill="#FEFEFE"></path>
                    <path d="M82.0123,57.874 L82.0123,57.08 C82.0123,57.015 82.0233,56.972 82.0443,56.95 C82.0663,56.929 82.0983,56.917 82.1423,56.917 L87.0123,56.917 C87.1043,56.917 87.1503,56.966 87.1503,57.063 L87.1503,57.703 C87.1503,57.769 87.1393,57.812 87.1173,57.837 C87.0953,57.861 87.0613,57.874 87.0123,57.874 L82.0123,57.874 Z M87.8553,59.146 L85.2213,59.146 C85.1463,58.957 85.0543,58.77 84.9463,58.587 C84.9303,58.565 84.9143,58.545 84.9013,58.526 C84.8883,58.508 84.8753,58.49 84.8653,58.474 L87.0523,58.474 C87.1943,58.474 87.3093,58.461 87.4013,58.436 C87.4923,58.412 87.5673,58.372 87.6233,58.315 C87.6813,58.259 87.7203,58.182 87.7413,58.085 C87.7633,57.987 87.7743,57.865 87.7743,57.72 L87.7743,57.056 C87.7743,56.909 87.7633,56.789 87.7413,56.695 C87.7203,56.6 87.6823,56.524 87.6273,56.468 C87.5743,56.411 87.4993,56.37 87.4063,56.346 C87.3103,56.321 87.1943,56.31 87.0523,56.31 L84.8563,56.31 C84.8193,56.224 84.7813,56.144 84.7423,56.07 C84.7043,55.998 84.6643,55.929 84.6213,55.864 C84.5463,55.74 84.4693,55.67 84.3903,55.653 C84.3123,55.637 84.2273,55.661 84.1353,55.726 C83.9783,55.84 83.9683,55.996 84.1033,56.196 C84.1143,56.218 84.1253,56.238 84.1393,56.257 C84.1533,56.276 84.1653,56.294 84.1753,56.31 L82.0043,56.31 C81.7553,56.31 81.5883,56.359 81.5013,56.46 C81.4153,56.56 81.3713,56.731 81.3713,56.975 L81.3713,59.916 C81.3713,60.207 81.3583,60.478 81.3313,60.73 C81.3043,60.981 81.2633,61.218 81.2053,61.439 C81.1493,61.661 81.0723,61.874 80.9753,62.079 C80.8773,62.285 80.7613,62.49 80.6263,62.695 C80.4493,62.966 80.4433,63.163 80.6103,63.287 C80.7073,63.357 80.7963,63.376 80.8773,63.344 C80.9583,63.311 81.0503,63.217 81.1543,63.06 C81.4453,62.611 81.6603,62.138 81.8013,61.638 C81.9423,61.138 82.0123,60.603 82.0123,60.029 L82.0123,58.474 L84.3623,58.474 C84.2543,58.598 84.2713,58.752 84.4103,58.936 C84.4383,58.974 84.4603,59.01 84.4803,59.045 C84.4983,59.08 84.5193,59.113 84.5403,59.146 L82.4343,59.146 C82.3093,59.146 82.2273,59.172 82.1863,59.223 C82.1463,59.274 82.1253,59.352 82.1253,59.454 C82.1253,59.557 82.1473,59.634 82.1903,59.686 C82.2343,59.736 82.3153,59.762 82.4343,59.762 L83.4463,59.762 C83.4303,60.118 83.3923,60.442 83.3333,60.734 C83.2743,61.026 83.1913,61.291 83.0853,61.528 C82.9803,61.767 82.8483,61.979 82.6893,62.169 C82.5293,62.357 82.3443,62.53 82.1343,62.687 C81.8473,62.898 81.7503,63.082 81.8423,63.238 C81.9023,63.347 81.9833,63.405 82.0853,63.417 C82.1873,63.427 82.3173,63.371 82.4743,63.247 C82.8633,62.928 83.1733,62.592 83.4063,62.237 C83.6383,61.884 83.8083,61.478 83.9163,61.018 L86.7283,61.018 C86.8583,61.018 86.9413,61.033 86.9763,61.062 C87.0103,61.093 87.0233,61.164 87.0123,61.277 C86.9913,61.45 86.9513,61.647 86.8953,61.868 C86.8373,62.091 86.7723,62.288 86.6963,62.461 C86.6533,62.552 86.6033,62.621 86.5463,62.667 C86.4903,62.713 86.4093,62.736 86.3073,62.736 C86.1723,62.736 86.0003,62.712 85.7923,62.663 C85.5843,62.614 85.2913,62.527 84.9133,62.403 C84.7623,62.355 84.6513,62.342 84.5803,62.363 C84.5103,62.385 84.4533,62.458 84.4103,62.582 C84.3673,62.695 84.3683,62.785 84.4143,62.853 C84.4603,62.921 84.5623,62.978 84.7193,63.027 C85.0913,63.142 85.4083,63.224 85.6713,63.274 C85.9333,63.326 86.1533,63.353 86.3313,63.353 C86.6073,63.353 86.8113,63.305 86.9433,63.21 C87.0753,63.115 87.1853,62.957 87.2713,62.736 C87.3643,62.504 87.4433,62.256 87.5103,61.994 C87.5783,61.732 87.6253,61.479 87.6523,61.237 C87.6683,61.08 87.6693,60.949 87.6573,60.844 C87.6433,60.738 87.6023,60.653 87.5343,60.588 C87.4673,60.523 87.3683,60.477 87.2393,60.446 C87.1103,60.417 86.9423,60.402 86.7373,60.402 L84.0223,60.402 C84.0333,60.3 84.0413,60.195 84.0503,60.09 C84.0583,59.984 84.0623,59.876 84.0623,59.762 L87.8553,59.762 C87.9473,59.762 88.0213,59.736 88.0773,59.686 C88.1343,59.634 88.1623,59.557 88.1623,59.454 C88.1623,59.352 88.1423,59.274 88.1023,59.223 C88.0623,59.172 87.9793,59.146 87.8553,59.146 Z" id="Fill-8" fill="#FEFEFE"></path>
                    <path d="M99.6294,60.8271 C99.7214,60.8621 99.8084,60.8531 99.8894,60.7991 C99.9814,60.7391 100.0284,60.6671 100.0304,60.5811 C100.0334,60.4941 100.0164,60.4101 99.9784,60.3291 C99.8384,60.0701 99.6834,59.8061 99.5124,59.5351 C99.3424,59.2651 99.1414,58.9601 98.9084,58.6191 L99.6064,58.6191 C99.7134,58.6191 99.7904,58.5961 99.8364,58.5461 C99.8824,58.4971 99.9054,58.4251 99.9054,58.3271 C99.9054,58.2241 99.8824,58.1491 99.8364,58.1001 C99.7904,58.0521 99.7134,58.0271 99.6064,58.0271 L98.8764,58.0271 L98.8764,57.4201 C98.8764,57.3011 98.8534,57.2171 98.8074,57.1691 C98.7614,57.1201 98.6854,57.0961 98.5764,57.0961 C98.4844,57.0961 98.4114,57.1191 98.3584,57.1651 C98.3044,57.2111 98.2764,57.2961 98.2764,57.4201 L98.2764,58.0271 L97.3684,58.0271 C97.2614,58.0271 97.1854,58.0521 97.1424,58.1001 C97.0994,58.1491 97.0774,58.2241 97.0774,58.3271 C97.0774,58.4251 97.0994,58.4971 97.1424,58.5461 C97.1854,58.5961 97.2614,58.6191 97.3684,58.6191 L98.1714,58.6191 C98.0794,58.9271 97.9844,59.2231 97.8874,59.5071 C97.7904,59.7901 97.6924,60.0551 97.5964,60.3011 C97.4984,60.5471 97.4004,60.7661 97.3004,60.9621 C97.1994,61.1561 97.1024,61.3171 97.0044,61.4471 C96.9014,61.5831 96.8594,61.6861 96.8784,61.7601 C96.8984,61.8321 96.9374,61.8961 96.9964,61.9501 C97.0884,62.0251 97.1774,62.0471 97.2634,62.0141 C97.3504,61.9821 97.4314,61.9011 97.5074,61.7711 C97.6744,61.4641 97.8194,61.1721 97.9434,60.8961 C98.0684,60.6211 98.1794,60.3431 98.2764,60.0611 L98.2764,63.1891 C98.2764,63.3031 98.2994,63.3801 98.3454,63.4211 C98.3914,63.4611 98.4684,63.4811 98.5764,63.4811 C98.6854,63.4811 98.7614,63.4611 98.8074,63.4211 C98.8534,63.3801 98.8764,63.3031 98.8764,63.1891 L98.8764,59.6241 C98.9684,59.7811 99.0574,59.9411 99.1444,60.1061 C99.2304,60.2711 99.3184,60.4421 99.4114,60.6211 C99.4654,60.7231 99.5384,60.7931 99.6294,60.8271" id="Fill-10" fill="#FEFEFE"></path>
                    <path d="M96.9556,59.6161 L96.9556,57.1111 C96.9556,57.0471 96.9796,57.0141 97.0286,57.0141 L103.2116,57.0141 C103.3196,57.0141 103.3946,56.9901 103.4386,56.9411 C103.4816,56.8931 103.5036,56.8171 103.5036,56.7151 C103.5036,56.5951 103.4786,56.5141 103.4306,56.4711 C103.3826,56.4281 103.3096,56.4091 103.2116,56.4151 L100.2866,56.4151 C100.2596,56.3121 100.2386,56.2311 100.2256,56.1721 C100.2126,56.1121 100.2016,56.0661 100.1926,56.0341 C100.1846,56.0021 100.1786,55.9771 100.1736,55.9611 C100.1676,55.9451 100.1646,55.9311 100.1646,55.9211 C100.1216,55.7801 100.0566,55.6961 99.9706,55.6701 C99.8846,55.6421 99.7726,55.6581 99.6386,55.7181 C99.5616,55.7621 99.5186,55.8271 99.5086,55.9161 C99.4976,56.0061 99.5186,56.0991 99.5726,56.1961 C99.5846,56.2231 99.5976,56.2561 99.6136,56.2941 C99.6296,56.3321 99.6436,56.3721 99.6536,56.4151 L97.0456,56.4151 C96.7856,56.4151 96.6026,56.4691 96.4976,56.5771 C96.3926,56.6851 96.3406,56.8631 96.3406,57.1111 L96.3406,59.5761 C96.3406,59.9971 96.3366,60.3511 96.3276,60.6411 C96.3196,60.9291 96.3026,61.1891 96.2746,61.4191 C96.2476,61.6481 96.2096,61.8641 96.1576,62.0671 C96.1056,62.2691 96.0376,62.4931 95.9506,62.7361 C95.8966,62.8871 95.8796,62.9951 95.8976,63.0591 C95.9176,63.1251 95.9726,63.1841 96.0636,63.2381 C96.1506,63.2811 96.2366,63.2831 96.3236,63.2421 C96.4096,63.2021 96.4756,63.1271 96.5186,63.0191 C96.5996,62.7931 96.6666,62.5671 96.7216,62.3431 C96.7736,62.1191 96.8186,61.8771 96.8536,61.6171 C96.8896,61.3581 96.9156,61.0681 96.9316,60.7471 C96.9476,60.4251 96.9556,60.0491 96.9556,59.6161" id="Fill-12" fill="#FEFEFE"></path>
                    <path d="M103.1841,61.2929 C103.0401,61.0389 102.8941,60.7619 102.7461,60.4589 C102.5971,60.1559 102.4501,59.8429 102.3041,59.5189 C102.1591,59.1939 102.0291,58.8949 101.9141,58.6189 L102.8951,58.6189 C103.0031,58.6189 103.0801,58.5979 103.1261,58.5549 C103.1721,58.5119 103.1961,58.4359 103.1961,58.3269 C103.1961,58.2199 103.1721,58.1429 103.1261,58.0969 C103.0801,58.0509 103.0031,58.0269 102.8951,58.0269 L101.7531,58.0269 L101.7531,57.3709 C101.7531,57.2789 101.7271,57.2079 101.6761,57.1559 C101.6241,57.1059 101.5531,57.0799 101.4611,57.0799 C101.3591,57.0799 101.2821,57.1059 101.2301,57.1559 C101.1791,57.2079 101.1541,57.2789 101.1541,57.3709 L101.1541,58.0269 L100.3431,58.0269 C100.2291,58.0269 100.1531,58.0509 100.1131,58.0969 C100.0721,58.1429 100.0511,58.2199 100.0511,58.3269 C100.0511,58.4359 100.0721,58.5119 100.1131,58.5549 C100.1531,58.5979 100.2291,58.6189 100.3431,58.6189 L101.0561,58.6189 C100.9371,58.9389 100.8061,59.2569 100.6631,59.5759 C100.5201,59.8949 100.3751,60.1949 100.2291,60.4789 C100.0831,60.7629 99.9461,61.0149 99.8171,61.2369 C99.6871,61.4579 99.5761,61.6259 99.4841,61.7389 C99.3921,61.8679 99.3491,61.9669 99.3541,62.0309 C99.3601,62.0959 99.4061,62.1659 99.4931,62.2419 C99.6491,62.3709 99.8191,62.3189 100.0021,62.0879 C100.1921,61.8229 100.3881,61.4989 100.5901,61.1149 C100.7931,60.7309 100.9801,60.3239 101.1541,59.8919 L101.1541,63.2059 C101.1541,63.3189 101.1781,63.3969 101.2261,63.4379 C101.2751,63.4779 101.3531,63.4979 101.4611,63.4979 C101.5751,63.4979 101.6521,63.4779 101.6931,63.4379 C101.7331,63.3969 101.7531,63.3189 101.7531,63.2059 L101.7531,59.6559 C101.8501,59.8889 101.9531,60.1249 102.0611,60.3659 C102.1681,60.6059 102.2801,60.8419 102.3931,61.0739 C102.5061,61.3079 102.6201,61.5279 102.7341,61.7389 C102.8471,61.9499 102.9571,62.1389 103.0661,62.3069 C103.1301,62.4369 103.2061,62.5119 103.2931,62.5329 C103.3791,62.5549 103.4681,62.5359 103.5601,62.4769 C103.6461,62.4169 103.6901,62.3329 103.6901,62.2259 C103.6901,62.1169 103.6441,62.0069 103.5521,61.8939 C103.4501,61.7469 103.3271,61.5469 103.1841,61.2929" id="Fill-14" fill="#FEFEFE"></path>
                    <path d="M111.7613,57.1601 L114.1843,57.1601 C114.3033,57.1601 114.3893,57.1411 114.4433,57.1041 C114.4973,57.0661 114.5243,56.9871 114.5243,56.8691 C114.5243,56.7611 114.4973,56.6851 114.4433,56.6411 C114.3893,56.5981 114.3033,56.5771 114.1843,56.5771 L113.4073,56.5771 C113.3843,56.4591 113.3593,56.3511 113.3283,56.2571 C113.2993,56.1631 113.2713,56.0781 113.2433,56.0021 C113.1843,55.8551 113.1183,55.7651 113.0453,55.7301 C112.9723,55.6951 112.8873,55.6961 112.7903,55.7341 C112.6873,55.7881 112.6263,55.8541 112.6083,55.9321 C112.5883,56.0121 112.6123,56.1121 112.6773,56.2361 C112.7033,56.2801 112.7253,56.3331 112.7413,56.3941 C112.7573,56.4571 112.7743,56.5171 112.7903,56.5771 L111.7443,56.5771 C111.6253,56.5771 111.5423,56.5991 111.4933,56.6451 C111.4453,56.6921 111.4203,56.7681 111.4203,56.8771 C111.4203,56.9961 111.4493,57.0731 111.5063,57.1071 C111.5623,57.1431 111.6473,57.1601 111.7613,57.1601" id="Fill-16" fill="#FEFEFE"></path>
                    <path d="M116.4292,59.6884 L115.5452,59.6884 C115.4482,59.6884 115.3992,59.6514 115.3992,59.5764 L115.3992,58.5624 C115.3992,58.5194 115.4082,58.4914 115.4282,58.4774 C115.4472,58.4634 115.4862,58.4574 115.5452,58.4574 L116.4292,58.4574 L116.4292,59.6884 Z M117.0292,58.4574 L117.9362,58.4574 C117.9852,58.4574 118.0172,58.4634 118.0332,58.4774 C118.0492,58.4914 118.0582,58.5194 118.0582,58.5624 L118.0582,59.5764 C118.0582,59.6194 118.0492,59.6484 118.0332,59.6654 C118.0172,59.6804 117.9822,59.6884 117.9282,59.6884 L117.0292,59.6884 L117.0292,58.4574 Z M118.7302,62.2974 C118.4112,62.0334 118.1162,61.7444 117.8432,61.4314 C117.5702,61.1184 117.2982,60.7314 117.0292,60.2724 L117.0292,60.2644 L118.0002,60.2644 C118.2392,60.2644 118.4062,60.2144 118.5032,60.1144 C118.6002,60.0144 118.6492,59.8304 118.6492,59.5594 L118.6492,58.5384 C118.6492,58.2944 118.5962,58.1254 118.4912,58.0274 C118.3852,57.9304 118.2222,57.8814 118.0002,57.8814 L117.0292,57.8814 L117.0292,57.2334 L118.5442,57.2334 C118.6582,57.2334 118.7412,57.2124 118.7952,57.1724 C118.8492,57.1314 118.8752,57.0584 118.8752,56.9504 C118.8752,56.7444 118.7652,56.6414 118.5442,56.6414 L117.0292,56.6414 L117.0292,56.0584 C117.0292,55.9344 117.0062,55.8464 116.9632,55.7944 C116.9202,55.7444 116.8452,55.7174 116.7372,55.7174 C116.6282,55.7174 116.5502,55.7444 116.5012,55.7944 C116.4532,55.8464 116.4292,55.9344 116.4292,56.0584 L116.4292,56.6414 L114.8972,56.6414 C114.7882,56.6414 114.7102,56.6654 114.6622,56.7104 C114.6142,56.7564 114.5892,56.8344 114.5892,56.9414 C114.5892,57.0494 114.6172,57.1254 114.6742,57.1684 C114.7312,57.2114 114.8082,57.2334 114.9052,57.2334 L116.4292,57.2334 L116.4292,57.8814 L115.4892,57.8814 C115.2452,57.8814 115.0732,57.9274 114.9702,58.0194 C114.8672,58.1114 114.8162,58.2844 114.8162,58.5384 L114.8162,59.5594 C114.8162,59.8514 114.8672,60.0424 114.9702,60.1304 C115.0732,60.2194 115.2452,60.2644 115.4892,60.2644 L116.2752,60.2644 C116.0262,60.7614 115.7602,61.1894 115.4772,61.5484 C115.1932,61.9084 114.8782,62.2364 114.5332,62.5334 C114.4242,62.6304 114.3532,62.7204 114.3182,62.8044 C114.2832,62.8884 114.2972,62.9764 114.3632,63.0684 C114.4322,63.1654 114.5062,63.2124 114.5852,63.2094 C114.6632,63.2074 114.7622,63.1514 114.8812,63.0434 C115.2212,62.7414 115.5172,62.4364 115.7682,62.1274 C116.0192,61.8204 116.2402,61.4964 116.4292,61.1564 L116.4292,63.1084 C116.4292,63.2384 116.4532,63.3304 116.5012,63.3834 C116.5502,63.4384 116.6282,63.4644 116.7372,63.4644 C116.9312,63.4644 117.0292,63.3464 117.0292,63.1084 L117.0292,61.2924 C117.2112,61.5684 117.4132,61.8324 117.6322,62.0834 C117.8512,62.3344 118.1032,62.5844 118.3902,62.8334 C118.6122,63.0334 118.7842,63.0464 118.9082,62.8744 C118.9682,62.7974 118.9842,62.7094 118.9572,62.6104 C118.9302,62.5094 118.8542,62.4064 118.7302,62.2974 Z" id="Fill-18" fill="#FEFEFE"></path>
                    <path d="M114.4761,60.9618 C114.4761,60.8538 114.4491,60.7768 114.3951,60.7338 C114.3401,60.6908 114.2541,60.6698 114.1351,60.6698 L113.2681,60.6698 C113.2851,60.5288 113.2981,60.3788 113.3081,60.2198 C113.3201,60.0608 113.3281,59.8948 113.3321,59.7218 L114.2971,59.7218 C114.4161,59.7218 114.5021,59.7028 114.5571,59.6648 C114.6111,59.6268 114.6381,59.5488 114.6381,59.4298 C114.6381,59.3218 114.6111,59.2458 114.5571,59.2018 C114.5021,59.1588 114.4161,59.1378 114.2971,59.1378 L113.8281,59.1378 C113.9191,58.9168 114.0031,58.6958 114.0791,58.4778 C114.1551,58.2588 114.2221,58.0358 114.2821,57.8088 C114.3301,57.5878 114.2601,57.4518 114.0711,57.4038 C113.9791,57.3818 113.8971,57.3948 113.8241,57.4408 C113.7501,57.4858 113.7011,57.5658 113.6731,57.6798 C113.6141,57.9428 113.5501,58.1908 113.4831,58.4168 C113.4151,58.6438 113.3281,58.8838 113.2191,59.1378 L112.7661,59.1378 C112.7881,59.1058 112.7981,59.0658 112.7981,59.0168 C112.7981,58.9678 112.7921,58.9048 112.7821,58.8298 C112.7601,58.6998 112.7431,58.5938 112.7291,58.5098 C112.7151,58.4268 112.7001,58.3468 112.6811,58.2708 C112.6621,58.1948 112.6391,58.1148 112.6121,58.0308 C112.5841,57.9478 112.5521,57.8438 112.5151,57.7198 C112.4711,57.5788 112.4151,57.4898 112.3481,57.4518 C112.2811,57.4148 112.1991,57.4148 112.1011,57.4518 C111.9131,57.5168 111.8551,57.6518 111.9311,57.8578 C111.9911,58.0148 112.0381,58.1738 112.0731,58.3358 C112.1081,58.4968 112.1451,58.6918 112.1821,58.9188 C112.1881,59.0168 112.2121,59.0888 112.2551,59.1378 L111.6071,59.1378 C111.4891,59.1378 111.4051,59.1608 111.3561,59.2068 C111.3071,59.2528 111.2831,59.3288 111.2831,59.4378 C111.2831,59.5568 111.3111,59.6338 111.3681,59.6688 C111.4241,59.7038 111.5101,59.7218 111.6221,59.7218 L112.7331,59.7218 C112.7231,59.8998 112.7131,60.0668 112.7051,60.2238 C112.6971,60.3808 112.6851,60.5288 112.6681,60.6698 L111.7691,60.6698 C111.6501,60.6698 111.5671,60.6918 111.5181,60.7378 C111.4691,60.7838 111.4451,60.8608 111.4451,60.9688 C111.4451,61.0888 111.4731,61.1648 111.5301,61.1998 C111.5861,61.2348 111.6711,61.2528 111.7861,61.2528 L112.5551,61.2528 C112.4791,61.5658 112.3701,61.8388 112.2271,62.0708 C112.0841,62.3038 111.8991,62.5298 111.6711,62.7518 C111.4451,62.9688 111.4101,63.1538 111.5671,63.3118 C111.6531,63.3978 111.7411,63.4298 111.8301,63.4078 C111.9181,63.3868 112.0341,63.2978 112.1741,63.1418 C112.4221,62.8598 112.6271,62.5718 112.7901,62.2778 C112.9531,61.9828 113.0791,61.6418 113.1711,61.2528 L114.1351,61.2528 C114.2541,61.2528 114.3401,61.2338 114.3951,61.1958 C114.4491,61.1578 114.4761,61.0798 114.4761,60.9618" id="Fill-20" fill="#FEFEFE"></path>
                    <path d="M127.2642,57.6796 C127.5982,57.8196 127.9112,57.9816 128.2032,58.1656 C128.3272,58.2416 128.4252,58.2816 128.4952,58.2866 C128.5662,58.2926 128.6302,58.2546 128.6902,58.1736 C128.7602,58.0706 128.7882,57.9876 128.7752,57.9216 C128.7622,57.8576 128.7012,57.7896 128.5922,57.7196 C128.4092,57.6006 128.2352,57.4976 128.0702,57.4116 C127.9062,57.3256 127.7342,57.2416 127.5552,57.1596 C127.4202,57.0956 127.3162,57.0716 127.2432,57.0876 C127.1702,57.1046 127.1102,57.1636 127.0612,57.2656 C127.0182,57.3586 127.0102,57.4366 127.0362,57.5006 C127.0642,57.5656 127.1392,57.6246 127.2642,57.6796" id="Fill-22" fill="#FEFEFE"></path>
                    <path d="M127.4664,60.3935 C127.8064,60.1615 128.1054,59.9295 128.3614,59.6975 C128.6174,59.4645 128.8654,59.2075 129.1034,58.9265 C129.1794,58.8345 129.2214,58.7525 129.2294,58.6805 C129.2364,58.6075 129.2004,58.5335 129.1194,58.4565 C129.0384,58.3815 128.9594,58.3505 128.8844,58.3645 C128.8094,58.3775 128.7224,58.4465 128.6254,58.5705 C128.4084,58.8405 128.1854,59.0785 127.9524,59.2845 C127.7204,59.4895 127.4494,59.6945 127.1424,59.8995 C127.0124,59.9805 126.9354,60.0615 126.9104,60.1425 C126.8874,60.2235 126.9024,60.3025 126.9554,60.3775 C127.0744,60.5395 127.2444,60.5445 127.4664,60.3935" id="Fill-24" fill="#FEFEFE"></path>
                    <path d="M127.6607,56.3993 C127.8337,56.4903 128.0067,56.5913 128.1797,56.7033 C128.3517,56.8133 128.5097,56.9203 128.6497,57.0223 C128.7677,57.1093 128.8657,57.1553 128.9407,57.1603 C129.0167,57.1663 129.0847,57.1303 129.1437,57.0553 C129.2197,56.9583 129.2477,56.8773 129.2287,56.8113 C129.2107,56.7473 129.1567,56.6793 129.0707,56.6093 C128.8977,56.4743 128.7187,56.3453 128.5317,56.2243 C128.3457,56.1033 128.1657,55.9963 127.9937,55.9043 C127.8637,55.8293 127.7627,55.7963 127.6887,55.8073 C127.6157,55.8183 127.5507,55.8723 127.4907,55.9693 C127.4367,56.0613 127.4207,56.1393 127.4417,56.2043 C127.4637,56.2693 127.5367,56.3343 127.6607,56.3993" id="Fill-26" fill="#FEFEFE"></path>
                    <path d="M134.3745,62.914 C134.3175,62.85 134.2035,62.806 134.0305,62.784 C133.6415,62.73 133.2925,62.656 132.9845,62.561 C132.6775,62.467 132.3995,62.34 132.1545,62.181 C131.9085,62.021 131.6865,61.827 131.4855,61.598 C131.2855,61.368 131.0965,61.089 130.9185,60.759 C130.9185,60.721 130.9195,60.685 130.9225,60.649 C130.9255,60.614 130.9265,60.575 130.9265,60.532 C130.9265,60.505 130.9255,60.478 130.9225,60.455 C130.9195,60.431 130.9185,60.408 130.9185,60.386 C130.9675,60.364 131.0345,60.324 131.1215,60.265 C131.3205,60.118 131.4965,59.976 131.6475,59.835 C131.7985,59.694 131.9315,59.549 132.0455,59.397 C132.1575,59.246 132.2585,59.081 132.3455,58.902 C132.4315,58.725 132.5095,58.524 132.5795,58.303 L133.1545,58.303 C133.2635,58.303 133.3345,58.319 133.3695,58.352 C133.4045,58.385 133.4165,58.474 133.4065,58.619 C133.3795,59.019 133.3275,59.349 133.2525,59.607 C133.2145,59.716 133.1705,59.79 133.1185,59.831 C133.0675,59.871 133.0045,59.886 132.9285,59.876 C132.8625,59.864 132.7795,59.847 132.6775,59.822 C132.5745,59.798 132.4555,59.765 132.3205,59.722 C132.1695,59.673 132.0555,59.663 131.9795,59.692 C131.9035,59.723 131.8485,59.8 131.8105,59.924 C131.7825,60.021 131.7975,60.097 131.8545,60.151 C131.9115,60.205 131.9965,60.251 132.1095,60.288 C132.2995,60.349 132.4575,60.39 132.5875,60.414 C132.7175,60.438 132.8315,60.451 132.9285,60.451 C133.1775,60.451 133.3675,60.409 133.4995,60.325 C133.6315,60.241 133.7355,60.07 133.8125,59.81 C133.8275,59.751 133.8455,59.676 133.8635,59.584 C133.8835,59.492 133.9005,59.392 133.9165,59.284 C133.9335,59.176 133.9475,59.065 133.9615,58.951 C133.9755,58.838 133.9845,58.727 133.9895,58.619 C134.0005,58.441 133.9995,58.294 133.9855,58.178 C133.9725,58.061 133.9415,57.971 133.8925,57.906 C133.8445,57.841 133.7735,57.795 133.6825,57.768 C133.5895,57.742 133.4745,57.727 133.3335,57.727 L131.0405,57.727 C130.9425,57.727 130.9395,57.712 131.0315,57.68 L132.7015,57.071 C132.9115,56.996 133.0675,56.902 133.1675,56.792 C133.2675,56.681 133.3095,56.576 133.2925,56.476 C133.2765,56.376 133.2025,56.29 133.0695,56.216 C132.9375,56.143 132.7415,56.107 132.4815,56.107 L129.7755,56.107 C129.5545,56.107 129.4435,56.207 129.4435,56.406 C129.4435,56.602 129.5545,56.699 129.7755,56.699 L132.0935,56.699 C132.2015,56.699 132.2065,56.715 132.1095,56.747 L130.2545,57.42 C130.0815,57.485 129.9485,57.564 129.8565,57.659 C129.7655,57.754 129.7205,57.847 129.7235,57.938 C129.7265,58.03 129.7795,58.111 129.8855,58.182 C129.9905,58.252 130.1505,58.293 130.3675,58.303 C130.2325,58.579 130.0635,58.82 129.8605,59.028 C129.6585,59.236 129.4105,59.43 129.1195,59.607 C128.9785,59.694 128.8945,59.779 128.8645,59.863 C128.8345,59.946 128.8495,60.034 128.9085,60.127 C128.9685,60.213 129.0355,60.259 129.1105,60.265 C129.1875,60.269 129.2925,60.229 129.4275,60.143 C129.6275,60.018 129.8065,59.893 129.9625,59.767 C130.1185,59.64 130.2595,59.502 130.3835,59.356 C130.5085,59.211 130.6195,59.052 130.7205,58.879 C130.8195,58.706 130.9185,58.514 131.0165,58.303 L131.9725,58.303 C131.8485,58.627 131.6915,58.901 131.5065,59.126 C131.3195,59.35 131.0745,59.561 130.7715,59.762 C130.6595,59.838 130.5865,59.903 130.5545,59.961 C130.5205,60.018 130.5115,60.075 130.5205,60.135 C130.3815,60.167 130.3115,60.3 130.3115,60.532 C130.3115,60.872 130.2485,61.167 130.1245,61.415 C130.0005,61.664 129.8105,61.879 129.5535,62.06 C129.2965,62.24 128.9695,62.391 128.5725,62.509 C128.1755,62.628 127.7035,62.722 127.1585,62.793 C126.9855,62.82 126.8665,62.863 126.8025,62.923 C126.7365,62.981 126.7125,63.073 126.7295,63.198 C126.7395,63.316 126.7825,63.389 126.8585,63.413 C126.9345,63.437 127.0505,63.441 127.2065,63.425 C128.2005,63.316 128.9855,63.104 129.5615,62.788 C130.1365,62.473 130.5265,62.066 130.7315,61.568 C130.8945,61.823 131.0735,62.047 131.2705,62.242 C131.4685,62.436 131.6935,62.607 131.9475,62.757 C132.2015,62.905 132.4905,63.032 132.8145,63.138 C133.1395,63.242 133.5065,63.333 133.9165,63.408 C134.1055,63.446 134.2355,63.449 134.3065,63.417 C134.3755,63.384 134.4195,63.309 134.4365,63.189 C134.4515,63.071 134.4325,62.978 134.3745,62.914" id="Fill-28" fill="#FEFEFE"></path>
                    <path d="M133.0054,60.5029 C132.9324,60.5389 132.8534,60.6209 132.7664,60.7509 C132.6954,60.8579 132.6104,60.9739 132.5114,61.0949 C132.4104,61.2169 132.2964,61.3309 132.1664,61.4399 C132.0534,61.5419 131.9834,61.6289 131.9554,61.6979 C131.9284,61.7699 131.9504,61.8469 132.0214,61.9339 C132.0964,62.0249 132.1744,62.0659 132.2554,62.0559 C132.3364,62.0439 132.4294,61.9959 132.5314,61.9089 C132.6714,61.7909 132.8074,61.6549 132.9364,61.5039 C133.0664,61.3529 133.1844,61.1909 133.2924,61.0179 C133.3624,60.9039 133.3954,60.8119 133.3904,60.7379 C133.3854,60.6659 133.3354,60.5999 133.2444,60.5399 C133.1574,60.4809 133.0774,60.4689 133.0054,60.5029" id="Fill-30" fill="#FEFEFE"></path>
                    <path d="M128.6089,60.4423 C128.5169,60.4213 128.4429,60.4373 128.3859,60.4913 C128.3299,60.5453 128.2769,60.6423 128.2279,60.7833 C128.1849,60.9123 128.1259,61.0613 128.0499,61.2283 C127.9739,61.3963 127.8879,61.5553 127.7909,61.7073 C127.7099,61.8313 127.6679,61.9323 127.6649,62.0103 C127.6619,62.0883 127.7039,62.1553 127.7909,62.2093 C127.8819,62.2683 127.9659,62.2863 128.0419,62.2613 C128.1179,62.2373 128.2009,62.1493 128.2939,61.9983 C128.3839,61.8523 128.4719,61.6903 128.5559,61.5123 C128.6399,61.3343 128.7169,61.1503 128.7869,60.9623 C128.8469,60.7943 128.8589,60.6713 128.8239,60.5963 C128.7889,60.5203 128.7169,60.4693 128.6089,60.4423" id="Fill-32" fill="#FEFEFE"></path>
                    <g id="Group-36" transform="translate(0.000000, 45.146000)">
                        <mask id="mask-4" fill="white">
                            <use xlink:href="#path-3"></use>
                        </mask>
                        <g id="Clip-35"></g>
                        <path d="M21.1978,11.4008 C21.1978,17.2548 16.4528,22.0008 10.5988,22.0008 C4.7448,22.0008 -0.0002,17.2548 -0.0002,11.4008 C-0.0002,5.5468 4.7448,0.8018 10.5988,0.8018 C16.4528,0.8018 21.1978,5.5468 21.1978,11.4008" id="Fill-34" fill="#EC6A00" mask="url(#mask-4)"></path>
                    </g>
                    <path d="M14.6353,54.1845 C14.6353,54.1845 10.5983,48.3335 10.5983,45.9485 C10.5983,48.3335 6.5623,54.1845 6.5623,54.1845 C6.1503,54.8825 5.8973,55.6875 5.8973,56.5575 C5.8973,59.1545 8.0023,61.2585 10.5983,61.2585 C13.1953,61.2585 15.3003,59.1545 15.3003,56.5575 C15.3003,55.6875 15.0473,54.8825 14.6353,54.1845" id="Fill-37" fill="#FEFEFE"></path>
                    <path d="M16.1792,15.2031 L5.0182,15.2031 C3.7692,15.2031 2.7572,16.2161 2.7572,17.4651 C2.7572,18.7141 3.7692,19.7261 5.0182,19.7261 L16.1792,19.7261 C17.4282,19.7261 18.4412,18.7141 18.4412,17.4651 C18.4412,16.2161 17.4282,15.2031 16.1792,15.2031" id="Fill-39" fill="#595757"></path>
                    <path d="M16.1792,33.2392 L5.0182,33.2392 C3.7692,33.2392 2.7572,34.2522 2.7572,35.5012 C2.7572,36.7502 3.7692,37.7622 5.0182,37.7622 L16.1792,37.7622 C17.4282,37.7622 18.4412,36.7502 18.4412,35.5012 C18.4412,34.2522 17.4282,33.2392 16.1792,33.2392" id="Fill-41" fill="#595757"></path>
                    <path d="M37.9498,33.2392 L23.8038,33.2392 C22.5548,33.2392 21.5428,34.2522 21.5428,35.5012 C21.5428,36.7502 22.5548,37.7622 23.8038,37.7622 L27.5048,37.7622 L22.5658,49.5522 C22.0838,50.7052 22.6268,52.0302 23.7788,52.5122 C24.9298,52.9952 26.2558,52.4522 26.7378,51.3002 L32.4078,37.7622 L37.8528,37.7622 L27.4738,62.5472 C26.9918,63.6982 27.5338,65.0232 28.6858,65.5062 C29.8388,65.9882 31.1628,65.4452 31.6448,64.2942 L42.3908,38.6342 C46.8368,40.4462 49.9378,44.8892 49.7448,50.0202 C49.5028,56.4072 44.0528,61.3682 37.6608,61.3682 L37.4728,61.3682 C36.2248,61.3682 35.2128,62.3802 35.2128,63.6292 C35.2128,64.8782 36.2248,65.8902 37.4728,65.8902 L37.6028,65.8902 C46.4858,65.8902 54.0048,58.9382 54.2678,50.0592 C54.5428,40.8332 47.1158,33.2392 37.9498,33.2392" id="Fill-43" fill="#595757"></path>
                    <path d="M90.6578,34.4169 C88.3388,34.4169 86.4518,32.5299 86.4518,30.2109 C86.4518,27.8919 88.3388,26.0049 90.6578,26.0049 C92.9768,26.0049 94.8628,27.8919 94.8628,30.2109 C94.8628,32.5299 92.9768,34.4169 90.6578,34.4169 M90.6578,21.7649 C86.0008,21.7649 82.2128,25.5539 82.2128,30.2109 C82.2128,34.8669 86.0008,38.6559 90.6578,38.6559 C95.3148,38.6559 99.1028,34.8669 99.1028,30.2109 C99.1028,25.5539 95.3148,21.7649 90.6578,21.7649" id="Fill-45" fill="#595757"></path>
                    <path d="M34.6412,31.956 C42.0452,32.223 48.1542,26.275 48.1542,18.93 L48.1542,17.701 C48.1542,16.321 47.0362,15.203 45.6562,15.203 L41.2342,15.203 C41.6782,12.49 42.6102,10.62 44.0062,9.652 C44.6492,9.207 45.3132,9.018 45.8552,8.944 C46.5802,8.847 47.1772,8.329 47.3412,7.615 C47.6142,6.434 46.6222,5.353 45.4202,5.509 C44.4442,5.636 43.2762,5.974 42.1172,6.756 C39.8512,8.285 38.3992,10.978 37.8002,14.762 C37.5742,16.197 36.4182,20.556 30.8472,20.422 C29.9682,20.4 29.2032,21.016 29.0722,21.885 C28.9172,22.903 29.6872,23.848 30.7172,23.866 C34.5032,23.936 37.6272,22.422 39.4952,19.727 L43.5942,19.727 C43.1702,24.272 39.1562,27.793 34.4212,27.414 C29.9592,27.057 26.6062,23.161 26.6062,18.685 L26.6062,17.514 C32.9892,17.301 34.8532,15.489 35.5102,10.519 C36.3902,3.863 41.8012,2.546 44.0792,2.287 C44.6532,2.222 45.0832,1.738 45.0912,1.166 C45.1002,0.469 44.4872,-0.079 43.7892,0.01 C40.9172,0.374 34.2702,2.097 33.1972,10.214 C32.6962,14.002 31.5002,15.499 24.6092,15.229 C24.5212,15.22 24.4352,15.203 24.3452,15.203 C23.0962,15.203 22.0832,16.216 22.0832,17.465 L22.0832,18.584 C22.0832,25.657 27.5732,31.702 34.6412,31.956" id="Fill-47" fill="#595757"></path>
                    <path d="M67.1646,20.5497 C66.0126,20.0677 64.6876,20.6107 64.2056,21.7617 L57.6376,37.4447 C57.1546,38.5967 57.6976,39.9217 58.8496,40.4037 C60.0016,40.8867 61.3266,40.3437 61.8096,39.1917 L68.3766,23.5087 C68.8586,22.3567 68.3166,21.0317 67.1646,20.5497" id="Fill-49" fill="#595757"></path>
                    <path d="M75.9205,9.8554 C74.6725,9.8554 73.6595,10.8684 73.6595,12.1174 L73.6595,37.8794 C73.6595,41.5404 70.6925,44.5064 67.0325,44.5064 L65.8495,44.5064 C64.6005,44.5064 63.5875,45.5194 63.5875,46.7674 C63.5875,48.0164 64.6005,49.0294 65.8495,49.0294 L67.0325,49.0294 C73.1905,49.0294 78.1825,44.0374 78.1825,37.8794 L78.1825,12.1174 C78.1825,10.8684 77.1695,9.8554 75.9205,9.8554" id="Fill-51" fill="#595757"></path>
                    <path d="M113.3062,14.0175 L113.6222,14.0175 C115.3342,14.0175 116.7272,15.4115 116.7272,17.1225 L116.7272,24.5405 C116.7272,26.2535 115.3342,27.6465 113.6222,27.6465 L113.3062,27.6465 C111.5942,27.6465 110.2012,26.2535 110.2012,24.5405 L110.2012,22.6985 L113.0322,22.6985 C114.0472,22.6985 114.8692,21.8755 114.8692,20.8615 C114.8692,19.8465 114.0472,19.0235 113.0322,19.0235 L110.2012,19.0235 L110.2012,17.1225 C110.2012,15.4115 111.5942,14.0175 113.3062,14.0175 M113.3062,31.8865 L113.6222,31.8865 C117.6722,31.8865 120.9672,28.5915 120.9672,24.5405 L120.9672,17.1225 C120.9672,13.0725 117.6722,9.7775 113.6222,9.7775 L113.3062,9.7775 C109.2552,9.7775 105.9602,13.0725 105.9602,17.1225 L105.9602,24.5405 C105.9602,28.5915 109.2552,31.8865 113.3062,31.8865" id="Fill-53" fill="#595757"></path>
                    <path d="M125.3335,32.0282 C126.5045,32.0282 127.4535,31.0792 127.4535,29.9082 L127.4535,26.0012 L130.1095,26.0012 C131.1245,26.0012 131.9465,25.1782 131.9465,24.1642 C131.9465,23.1492 131.1245,22.3262 130.1095,22.3262 L127.4535,22.3262 L127.4535,20.6442 L130.1095,20.6442 C131.1245,20.6442 131.9465,19.8222 131.9465,18.8072 C131.9465,17.7932 131.1245,16.9692 130.1095,16.9692 L127.4535,16.9692 L127.4535,16.5572 C127.4535,14.8422 128.8445,13.4522 130.5595,13.4522 L130.8755,13.4522 C132.5905,13.4522 133.9795,14.8422 133.9795,16.5572 L133.9795,25.1062 C133.9795,26.3902 133.1965,27.4962 132.0825,27.9672 C131.3275,28.2872 130.8745,29.0712 130.8745,29.8912 C130.8745,31.4332 132.4685,32.4432 133.8755,31.8112 C136.4345,30.6612 138.2205,28.0892 138.2205,25.1062 L138.2205,16.5572 C138.2205,12.5012 134.9315,9.2122 130.8745,9.2122 L130.5595,9.2122 C126.5025,9.2122 123.2145,12.5012 123.2145,16.5572 L123.2145,29.9082 C123.2145,31.0792 124.1625,32.0282 125.3335,32.0282" id="Fill-55" fill="#595757"></path>
                    <path d="M109.3511,41.0683 C109.3511,39.1753 110.8901,37.6353 112.7831,37.6353 L115.9031,37.6353 L112.9651,44.6483 L109.3511,44.6483 L109.3511,41.0683 Z M123.2421,44.6483 L117.5631,44.6483 L120.4991,37.6353 L126.1781,37.6353 L123.2421,44.6483 Z M134.8611,41.0683 L134.8611,44.6483 L127.8381,44.6483 L130.7751,37.6353 L131.4281,37.6353 C133.3211,37.6353 134.8611,39.1753 134.8611,41.0683 Z M140.0041,44.6483 L139.1011,44.6483 L139.1011,41.0683 C139.1011,36.8383 135.6591,33.3953 131.4281,33.3953 L112.7831,33.3953 C108.5521,33.3953 105.1111,36.8383 105.1111,41.0683 L105.1111,44.6483 L99.0241,44.6483 C97.8531,44.6483 96.9041,45.5973 96.9041,46.7673 C96.9041,47.9383 97.8531,48.8873 99.0241,48.8873 L140.0041,48.8873 C141.1751,48.8873 142.1241,47.9383 142.1241,46.7673 C142.1241,45.5973 141.1751,44.6483 140.0041,44.6483 Z" id="Fill-57" fill="#595757"></path>
                    <path d="M93.0611,44.6484 L88.2541,44.6484 C87.0831,44.6484 86.1341,45.5974 86.1341,46.7674 C86.1341,47.9384 87.0831,48.8874 88.2541,48.8874 L93.0611,48.8874 C94.2321,48.8874 95.1801,47.9384 95.1801,46.7674 C95.1801,45.5974 94.2321,44.6484 93.0611,44.6484" id="Fill-59" fill="#595757"></path>
                </g>
            </g>
        </g>
    </g>
</svg>