<?xml version="1.0" encoding="UTF-8"?>
<svg width="54px" height="47px" viewBox="0 0 54 47" version="1.1" xmlns="http://www.w3.org/2000/svg" xmlns:xlink="http://www.w3.org/1999/xlink">
    <!-- Generator: Sketch 49.2 (51160) - http://www.bohemiancoding.com/sketch -->
    <title>向下</title>
    <desc>Created with Sketch.</desc>
    <defs></defs>
    <g id="Page-1" stroke="none" stroke-width="1" fill="none" fill-rule="evenodd">
        <g id="首页" transform="translate(-934.000000, -858.000000)" fill="#FFFFFF" fill-rule="nonzero">
            <g id="向下" transform="translate(934.000000, 858.000000)">
                <g id="Group-11">
                    <path d="M27,11 C28.122807,11 29,11.8693009 29,12.9057751 L29,31.0942249 C29,32.1641337 28.0877193,33 27,33 C25.9122807,33 25,32.1306991 25,31.0942249 L25,12.9057751 C25,11.8358663 25.877193,11 27,11 Z" id="Shape"></path>
                    <path d="M27,0 C28.122807,0 29,0.912280702 29,2 L29,6 C29,7.12280702 28.0877193,8 27,8 C25.9122807,8 25,7.0877193 25,6 L25,2 C25,0.912280702 25.877193,0 27,0 Z" id="Shape"></path>
                    <path d="M52.054038,19 C52.5706651,19 53.0528504,19.1994065 53.4317102,19.5649852 C54.1894299,20.2961424 54.1894299,21.525816 53.4317102,22.2569733 L28.358076,46.451632 C27.6003563,47.1827893 26.3260095,47.1827893 25.5682898,46.451632 C24.8105701,45.7204748 24.8105701,44.4908012 25.5682898,43.7596439 L50.641924,19.5649852 C51.0552257,19.1994065 51.5718527,19 52.054038,19 Z" id="Shape"></path>
                    <path d="M1.9804038,19 C2.49703088,19 2.97921615,19.1994065 3.35807601,19.5649852 L28.4317102,43.7596439 C29.1894299,44.4908012 29.1894299,45.7204748 28.4317102,46.451632 C27.6739905,47.1827893 26.3996437,47.1827893 25.641924,46.451632 L0.568289786,22.2569733 C-0.189429929,21.525816 -0.189429929,20.2961424 0.568289786,19.5649852 C0.947149644,19.1994065 1.46377672,19 1.9804038,19 Z" id="Shape"></path>
                </g>
            </g>
        </g>
    </g>
</svg>